<svg width="199" height="55" viewBox="0 0 199 55" fill="none" xmlns="http://www.w3.org/2000/svg">
<g clip-path="url(#clip0_197_816)">
<path d="M145.877 42.5386C145.019 44.9292 143.609 47.0788 141.763 48.809C139.918 50.5393 137.69 51.8002 135.265 52.4872C134.117 52.7751 132.941 52.9379 131.758 52.9731C120.665 52.9731 109.572 52.9731 98.4795 52.9731C96.7606 52.9731 96.1876 52.279 95.7521 50.8445C91.9017 38.7057 88.0283 26.5823 84.132 14.4743C83.9491 13.644 83.6065 12.8579 83.1236 12.1607C81.7026 10.4486 79.3419 11.189 78.5397 13.6183C76.6374 19.4949 74.8039 25.3947 72.9245 31.2944C70.793 37.8882 68.5928 44.4358 66.5529 51.0527C66.5146 51.3377 66.4189 51.6116 66.2717 51.8578C66.1245 52.1039 65.9289 52.317 65.697 52.4839C65.4651 52.6508 65.2017 52.768 64.9232 52.8283C64.6447 52.8885 64.357 52.8906 64.0776 52.8342C61.0523 52.7186 58.0499 52.8342 54.7724 52.8342C54.9787 52.0476 55.0933 51.4923 55.2766 50.9371C59.6313 37.333 64.0776 23.6363 68.5928 9.87023C69.4327 7.06207 71.1855 4.62153 73.5682 2.94244C75.951 1.26336 78.8246 0.443699 81.7255 0.615731C84.5266 0.73313 87.2201 1.73691 89.4248 3.48498C91.6295 5.23304 93.2337 7.63684 94.0103 10.3561C97.2343 20.351 100.451 30.3767 103.659 40.4332C104.003 41.4975 104.324 42.2378 105.699 42.2378C113.767 42.2378 121.743 42.3998 129.856 42.3998C131.179 42.3879 132.478 42.0462 133.638 41.4049C134.498 40.9322 135.158 40.1597 135.495 39.2316C135.833 38.3036 135.824 37.2834 135.471 36.3612C135.274 35.3755 134.743 34.4898 133.969 33.8565C133.196 33.2231 132.227 32.8817 131.231 32.8908C126.281 32.8908 121.33 32.8908 116.38 32.6594C112.416 32.3513 108.732 30.4782 106.128 27.4464C103.524 24.4145 102.208 20.4685 102.468 16.4641C102.657 12.524 104.355 8.81205 107.202 6.11036C110.049 3.40867 113.824 1.92816 117.732 1.98077H143.608V12.6234H119.68C115.623 12.6234 113.171 14.4743 113.217 17.4358C113.263 20.3972 115.669 22.063 119.772 22.063H131.231C133.474 22.0487 135.693 22.5396 137.724 23.5002C139.755 24.4607 141.549 25.8666 142.974 27.6154C144.399 29.3642 145.42 31.4119 145.961 33.6093C146.503 35.8067 146.553 38.0984 146.106 40.3175C145.968 41.0347 145.854 41.7751 145.739 42.5155L145.877 42.5386Z" fill="#D71F27"/>
<path d="M10.7444 52.8341H0.04107V14.2429C-0.0258268 10.9313 1.12082 7.71143 3.26105 5.20081C5.40129 2.6902 8.38443 1.06564 11.6382 0.638762C14.8176 0.187739 18.0506 0.923807 20.7304 2.70875C23.4101 4.4937 25.3522 7.20475 26.192 10.3328C29.0569 20.2583 31.7614 30.2532 34.5346 40.2249C34.6951 40.8033 34.6951 41.5436 35.0618 41.8907C35.7723 42.5848 36.7349 43.5565 37.3537 43.4408C38.3403 43.1081 39.1614 42.4035 39.6457 41.4742C39.9005 40.7316 39.9714 39.9373 39.8519 39.1606V2.16575H50.4407C50.4407 2.81357 50.5553 3.43825 50.5553 4.08606V40.8033C50.5929 44.0972 49.4412 47.2924 47.3154 49.7917C45.1896 52.291 42.2351 53.9235 39.0039 54.3843C35.8062 54.7401 32.5872 53.9375 29.9214 52.1194C27.2557 50.3014 25.3166 47.5864 24.4501 44.4588C21.7227 34.7647 19.087 24.9781 16.3825 15.2377C15.9012 13.4794 15.695 11.1889 13.128 11.4897C10.561 11.7904 10.8361 14.1272 10.8361 16.1169C10.8361 27.5308 10.8361 38.9524 10.8361 50.3817L10.7444 52.8341Z" fill="#D71F27"/>
<path d="M148.169 42.6078C150.002 37.194 151.836 31.7801 153.623 26.4125C155.411 21.0449 157.153 15.2839 158.987 9.75438C159.868 7.03986 161.581 4.67853 163.879 3.01177C166.177 1.34501 168.941 0.459196 171.771 0.482377C174.6 0.505558 177.349 1.43654 179.62 3.14073C181.891 4.84491 183.567 7.234 184.404 9.96261C188.988 23.8444 193.472 37.7261 197.858 51.6078C197.959 52.0407 198.021 52.4822 198.041 52.9266C194.534 52.9266 191.165 52.9266 187.773 52.9266C187.223 52.9266 186.513 51.6773 186.238 50.8675C183.166 41.451 180.164 32.0346 177.07 22.595C176.199 19.9112 175.282 17.2274 174.48 14.4973C174.022 12.9935 173.494 11.5821 171.684 11.5127C169.873 11.4433 169.186 13.0397 168.704 14.5667C164.831 26.6207 160.912 38.6516 157.13 50.7287C156.557 52.5333 155.778 53.2042 153.876 53.0423C151.034 52.8572 148.146 53.0423 145.143 53.0423L148.169 42.6078Z" fill="#D71F27"/>
</g>
<defs>
<clipPath id="clip0_197_816">
<rect width="198" height="54" fill="white" transform="translate(0.0410767 0.5)"/>
</clipPath>
</defs>
</svg>
