<svg width="306" height="103" viewBox="0 0 306 103" fill="none" xmlns="http://www.w3.org/2000/svg">
<path d="M155.68 0.629883L162.108 3.91614C162.485 4.41998 162.757 4.99307 162.907 5.60188C163.057 6.2107 163.083 6.84301 162.983 7.46184C162.983 12.4561 162.983 17.4503 162.983 22.4446V28.0442C162.852 33.3411 163.223 38.638 162.786 43.935C162.261 45.3186 161.255 44.7998 160.359 44.4755C157.932 43.5674 155.592 42.4432 153.253 41.3622C152.4 40.9298 151.547 40.5406 151.285 39.5028C150.869 35.0059 151.285 30.4873 151.285 25.9687C151.088 18.4449 151.285 10.8346 151.285 3.37564C151.218 2.89208 151.249 2.40024 151.377 1.92882C151.505 1.4574 151.726 1.01583 152.028 0.629883H155.68Z" fill="#36297F"/>
<path d="M117.393 54.8746C116.715 54.0098 117.065 52.9936 117.065 52.0424C117.065 40.6558 117.065 29.2548 117.065 17.8394C117.065 13.6883 117.393 13.3208 121.832 12.4127C121.963 12.6721 121.985 13.0397 121.832 13.1478C118.705 14.6396 118.771 17.3637 118.814 20.2176C118.814 26.1631 118.814 26.0982 124.368 23.8714C125.464 23.5942 126.416 22.9211 127.035 21.9846C127.654 21.0482 127.896 19.9164 127.714 18.8123C127.473 16.3692 127.714 13.8829 127.561 11.3966C125.374 11.3966 123.953 13.7964 121.788 12.4343C126.207 9.97405 130.787 7.80726 135.498 5.94829C139.281 4.1322 143.129 2.4026 146.955 0.651367H148.595C148.595 2.18639 147.13 2.35936 146.125 2.68366C142.364 3.87276 140.374 6.05639 141.117 10.1858C141.297 11.6217 141.297 13.074 141.117 14.5099C141.093 14.9698 141.217 15.4255 141.473 15.8105C141.729 16.1955 142.102 16.4897 142.539 16.6502C140.505 20.0878 141.27 23.8497 141.139 27.4603C141.139 29.1467 141.795 29.4277 143.326 28.844C144.856 28.2602 146.103 26.9847 147.918 27.6981C148.377 29.4277 146.802 29.6656 145.906 29.8601C141.708 31.0709 140.746 33.795 141.052 37.7947C141.402 42.3566 141.052 42.3782 145.665 41.6431C145.79 41.6934 145.899 41.7762 145.98 41.8829C146.061 41.9895 146.111 42.1159 146.125 42.2485C145.315 44.4105 143.348 44.4105 141.883 44.8429C144.651 45.7079 147.319 46.8602 149.842 48.2805C150.118 48.4353 150.346 48.6625 150.5 48.9372C150.655 49.2118 150.729 49.5232 150.716 49.8371C150.715 50.242 150.592 50.6374 150.362 50.9726C150.132 51.3077 149.806 51.5673 149.426 51.7181C147 53.0856 144.406 54.1392 141.708 54.853C141.511 54.8003 141.328 54.7051 141.173 54.5742C141.018 54.4434 140.895 54.2801 140.811 54.0963C141.402 52.2153 143.391 52.4315 144.681 51.5883C145.971 50.7452 146.868 50.6803 148.092 49.9668C145.763 48.4731 143.23 47.3156 140.571 46.5292C139.679 46.3344 138.746 46.4894 137.969 46.9616C135.414 48.0761 132.924 49.3321 130.512 50.7235C129.66 50.5506 129.528 49.8587 129.419 49.1885C131.19 47.0265 133.792 46.5725 136.219 45.5563C137.212 45.253 138.064 44.6098 138.621 43.7422C139.178 42.8745 139.404 41.8391 139.259 40.8215C139.127 39.0487 139.259 37.2542 139.259 35.4814C139.259 33.7085 138.646 33.622 137.072 34.1842C129.813 36.8651 129.791 36.8434 129.791 44.4969C129.941 46.1027 129.793 47.7221 129.353 49.275C129.47 49.6703 129.47 50.0904 129.353 50.4857C127.673 51.8336 125.73 52.8269 123.647 53.4044C122.247 53.9882 120.979 54.7881 119.645 55.5664C118.792 55.5664 118.617 54.8314 118.421 54.1611C120.283 52.4735 122.535 51.2634 124.98 50.6371C125.918 50.4054 126.731 49.8295 127.255 49.0264C127.779 48.2233 127.974 47.2532 127.801 46.313C127.67 44.2591 127.801 42.2268 127.801 40.1729C127.801 38.8757 127.429 38.292 126.052 39.0054C124.674 39.7189 123.384 40.0648 122.094 40.7134C120.804 41.362 119.601 41.6431 118.967 42.8754C118.661 46.5941 119.492 50.356 118.421 54.0314C118.246 54.7449 118.071 55.1124 117.393 54.8746Z" fill="#544B45"/>
<path d="M142.648 16.7583C140.899 17.1475 140.068 16.7583 140.461 14.7044C140.562 13.2648 140.562 11.82 140.461 10.3804C140.461 4.24028 140.461 4.21866 146.278 1.73235C147.157 1.52523 147.97 1.10128 148.639 0.5H150.826C151.941 2.98631 151.154 5.60234 151.372 8.15352C151.438 9.31289 151.438 10.475 151.372 11.6344C151.382 12.0802 151.252 12.5182 151.001 12.8883C148.488 14.3449 145.864 15.6028 143.151 16.6502L142.648 16.7583Z" fill="#C42C17"/>
<path d="M151.853 0.629883V26.3794H151.329C151.147 26.2486 150.996 26.0803 150.887 25.8862C150.777 25.6921 150.712 25.4768 150.694 25.2552C150.278 20.9698 150.388 16.6504 151.022 12.3912C151.197 8.47798 150.716 4.56474 151.285 0.651503L151.853 0.629883Z" fill="#5B5472"/>
<path d="M151.307 0.629883V12.4777C151.176 12.6939 151.044 12.7155 150.891 12.4777C150.891 8.54284 150.891 4.58636 150.891 0.629883H151.307Z" fill="#3A3937"/>
<path d="M162.961 4.37012C166.426 5.56035 169.795 7.00574 173.041 8.69414C173.549 9.2169 173.832 9.91483 173.828 10.6399C173.588 14.5748 174.659 18.5961 173.172 22.4661C172.976 22.6391 172.757 22.9202 172.516 22.8769C168.765 22.524 165.277 20.815 162.72 18.0773C162.241 13.5154 162.322 8.91284 162.961 4.37012Z" fill="#36297F"/>
<path d="M174.091 60.0853H173.916H173.719C171.2 59.1976 168.733 58.1727 166.328 57.0152C165.257 56.1504 162.852 56.1504 164.142 53.7506C165.232 52.9367 166.509 52.4019 167.859 52.1939C169.366 51.6669 170.828 51.0235 172.232 50.2697C172.47 50.1681 172.72 50.0955 172.976 50.0535C174.037 50.0439 175.088 50.2576 176.059 50.6805C178.092 51.6102 180.082 52.6696 182.159 53.4695C182.837 53.729 183.537 54.1614 183.559 54.9397C183.58 55.718 182.662 55.9558 182.072 56.2585C179.328 57.3568 176.662 58.6352 174.091 60.0853Z" fill="#DC9323"/>
<path d="M164.864 63.9988H163.858C162.983 65.2528 161.868 65.0582 160.687 64.5177C158.838 63.6013 156.923 62.8209 154.958 62.1828C154.339 62.0971 153.756 61.8425 153.275 61.4477C152.072 60.3883 152.028 59.4586 153.603 58.7019L156.423 57.2966C156.646 57.1739 156.881 57.0725 157.123 56.9939C157.384 56.9272 157.64 56.8405 157.888 56.7345C159.143 55.7658 160.697 55.2523 162.289 55.2799C163.88 55.3074 165.415 55.8743 166.635 56.8858C168.515 58.1398 171.008 58.356 172.91 60.064C170.242 61.7504 167.4 62.5719 164.864 63.9988Z" fill="#FDFDFD"/>
<path d="M139.106 64.5603H138.952C136.222 63.0307 133.404 61.6591 130.512 60.4525C129.528 58.5932 131.453 58.7878 132.196 58.1392C134.787 56.7664 137.542 55.7205 140.396 55.0259C142.783 55.8202 145.107 56.7885 147.349 57.923C148.377 58.6581 150.498 58.3338 150.082 60.539C147.896 62.2902 144.878 62.8524 142.407 64.2793C141.356 64.6804 140.211 64.7779 139.106 64.5603Z" fill="#DB9323"/>
<path d="M276.203 98.2664C274.017 99.0014 272.027 99.4122 270.671 97.6177C270.121 96.8991 269.784 96.0427 269.699 95.1451C269.614 94.2475 269.784 93.3442 270.19 92.537C270.464 91.8731 270.939 91.3092 271.55 90.9222C272.16 90.5352 272.877 90.3441 273.601 90.375C274.894 90.5371 276.201 90.5371 277.493 90.375C278.521 90.1156 278.893 90.6561 278.871 91.6938C278.871 93.8558 278.871 96.0179 278.871 98.1799C278.73 98.982 278.402 99.7403 277.911 100.394C277.421 101.048 276.782 101.579 276.046 101.945C275.311 102.31 274.499 102.501 273.676 102.5C272.852 102.5 272.041 102.308 271.306 101.942C271.071 101.817 270.89 101.612 270.798 101.365C270.705 101.119 270.707 100.847 270.803 100.601C271.021 99.7149 271.655 100.342 272.093 100.407C273.667 100.558 275.329 100.969 276.203 98.2664Z" fill="#192348"/>
<path d="M80.2212 92.8613C80.2212 87.0239 80.2212 87.0239 86.0593 87.0671H87.6992C88.4208 87.0671 88.5301 87.5211 88.5301 88.1265C88.5301 88.7319 88.4208 89.1643 87.6773 89.1859H84.157C83.2605 89.1859 83.1513 89.6832 83.1513 90.3966C83.1513 91.1101 83.501 91.3479 84.1351 91.3263C84.7692 91.3047 85.9501 91.3263 86.8466 91.3263C87.7431 91.3263 88.1803 91.5425 88.1366 92.5154C88.0928 93.4883 87.5899 93.5099 86.9121 93.4883C86.2343 93.4667 85.4471 93.4883 84.7255 93.4883C83.2824 93.3153 83.1075 94.0288 83.1075 95.2179C83.1075 96.407 83.4136 96.861 84.6381 96.7529C85.8626 96.6448 86.4529 96.7529 87.3494 96.7529C88.2459 96.7529 88.5301 96.9259 88.5301 97.7907C88.5301 98.6555 88.2459 98.9149 87.4369 98.8933C85.4471 98.8933 83.4573 98.8933 81.4676 98.8933C80.265 98.8933 80.1556 98.3096 80.1774 97.4015C80.2212 95.8881 80.2212 94.4828 80.2212 92.8613Z" fill="#162046"/>
<path d="M96.6862 90.6993C96.6862 89.5318 96.6862 88.5372 96.6862 87.7589C96.6862 86.9806 96.9486 86.4617 97.9107 86.505C98.8728 86.5482 99.5287 86.505 99.5069 87.7157C99.5069 91.0236 99.5069 94.3314 99.5069 97.6393C99.5506 97.9901 99.4817 98.3455 99.31 98.6555C98.2167 99.8446 91.3947 98.2447 90.8044 96.6664C90.4299 95.8453 90.2989 94.936 90.4267 94.0442C90.5544 93.1525 90.9355 92.3149 91.5258 91.6289C92.1687 90.9431 93.0191 90.4818 93.9494 90.3142C94.8798 90.1466 95.8401 90.2817 96.6862 90.6993Z" fill="#192348"/>
<path d="M223.288 91.1103C227.902 89.4239 229.236 90.3536 229.236 95.0451C229.236 95.9315 229.236 96.818 229.236 97.7044C229.236 98.9583 228.492 98.8503 227.662 98.8935C226.831 98.9367 226.415 98.5043 226.437 97.6179C226.459 96.7315 226.437 95.4559 226.437 94.4181C226.437 93.3804 226.24 92.4075 224.797 92.4507C223.354 92.4939 223.223 93.3371 223.288 94.4614C223.354 95.5856 223.288 96.6234 223.288 97.6611C223.288 98.6989 223.004 98.9367 222.064 98.8935C221.124 98.8503 220.468 98.8935 220.49 97.7044C220.49 94.3965 220.49 91.2184 220.49 87.8024C220.49 86.6781 220.971 86.5268 221.955 86.5052C222.939 86.4835 223.354 86.916 223.288 87.9105C223.223 88.905 223.288 89.8779 223.288 91.1103Z" fill="#172147"/>
<path d="M9.94497 90.8939C7.7584 89.5318 5.96543 88.1481 4.08498 90.2237C3.40525 90.9106 3.00333 91.8198 2.95499 92.7797C2.90666 93.7396 3.21525 94.6838 3.8226 95.4341C5.70305 97.9637 7.82407 96.3638 9.74825 95.3044C10.6229 97.7258 9.20162 98.4609 7.2993 98.8068C6.05968 99.1025 4.75713 99.0024 3.57864 98.5208C2.40015 98.0391 1.40631 97.2008 0.739598 96.126C0.175153 94.9536 -0.0540691 93.6508 0.0769815 92.3588C0.208032 91.0668 0.69428 89.8349 1.48296 88.7967C2.47203 87.9313 3.68542 87.3555 4.98702 87.134C6.28862 86.9125 7.62691 87.0541 8.85168 87.5428C10.4916 88.1914 9.77004 89.4021 9.94497 90.8939Z" fill="#1A2449"/>
<path d="M174.091 60.0849C174.769 58.2905 176.693 58.3986 178.048 57.6419C179.404 56.8852 181.481 56.0852 183.668 55.1123L175.752 51.2423C175.669 51.1334 175.624 51.0005 175.624 50.864C175.624 50.7274 175.669 50.5945 175.752 50.4856C177.939 50.1397 179.688 51.5017 181.525 52.3017C183.362 53.1016 183.974 52.5611 183.886 50.7234C183.799 49.4782 183.799 48.2284 183.886 46.9831C184.171 44.1293 183.887 41.6646 180.541 40.4971C180.384 40.4644 180.235 40.4002 180.103 40.3086C179.972 40.2169 179.861 40.0996 179.777 39.964C179.693 39.8284 179.638 39.6772 179.615 39.5198C179.592 39.3624 179.602 39.202 179.645 39.0486C179.82 38.9077 180.024 38.8058 180.243 38.7498C180.462 38.6938 180.69 38.6851 180.913 38.7243C183.865 39.0918 183.58 39.0702 183.93 36.2812C184.564 30.8978 183.427 26.8332 177.371 25.4711C176.857 25.4204 176.372 25.2148 175.981 24.8822C175.59 24.5496 175.312 24.1061 175.184 23.6118C175.316 23.3748 175.535 23.1969 175.796 23.1145C178.114 22.9632 179.819 24.5415 181.831 25.2766C183.296 25.7954 184.018 25.8603 183.886 24.0226C183.886 21.8606 183.886 19.6986 183.886 17.3852C183.962 16.5382 183.743 15.6913 183.266 14.9839C182.789 14.2764 182.082 13.7508 181.263 13.4936C179.265 12.9479 177.404 11.9982 175.796 10.7046C175.796 10.2073 175.796 9.86141 176.474 10.0344C176.651 10.0598 176.826 10.0959 176.999 10.1425C179.688 11.3964 183.187 12.045 184.805 14.1206C186.423 16.1961 185.242 19.6337 185.242 22.4876C185.242 32.4977 185.242 42.5078 185.242 52.5179C185.366 53.3385 185.177 54.1752 184.712 54.8662C184.248 55.5571 183.541 56.0531 182.728 56.2582C179.863 57.577 176.977 58.8742 174.091 60.0849Z" fill="#474549"/>
<path d="M193.923 87.0664C195.191 87.0664 196.459 87.0664 197.728 87.0664C198.493 87.0664 198.865 87.2826 198.865 88.1258C198.865 88.969 198.537 89.3582 197.749 89.2068C195.257 88.7312 195.191 90.1797 195.279 91.9742C195.366 93.7687 195.279 95.3686 195.279 97.0549C195.279 98.1359 195.279 98.9142 193.77 98.9359C192.261 98.9575 192.13 98.3305 192.174 97.163C192.174 95.1091 192.174 93.0336 192.174 91.0013C192.174 89.6176 191.824 89.0339 190.381 89.1852C189.659 89.1852 188.675 89.5311 188.653 88.1907C188.631 86.8502 189.768 87.1313 190.556 87.0664C191.343 87.0016 192.83 87.0664 193.923 87.0664Z" fill="#1A2449"/>
<path d="M110.833 94.8071V97.7475C110.833 98.288 110.702 99.0879 110.068 98.8068C108.034 97.9637 106.023 99.0879 104.055 98.8068C103.469 98.6824 102.949 98.3495 102.594 97.8713C102.239 97.3931 102.075 96.8028 102.131 96.2124C102.131 94.699 102.131 93.1856 102.131 91.6722C102.131 90.5696 102.546 90.3318 103.574 90.3318C104.601 90.3318 105.083 90.5696 104.995 91.6506C104.94 92.6372 104.94 93.626 104.995 94.6125C104.995 95.5854 104.864 96.7745 106.329 96.7745C107.794 96.7745 108.166 95.953 108.1 94.6125C108.034 93.2721 108.1 92.6451 108.1 91.6722C108.1 90.6993 108.319 90.202 109.456 90.2453C110.593 90.2885 111.008 90.4182 110.943 91.5641C110.877 92.71 110.833 93.7261 110.833 94.8071Z" fill="#182248"/>
<path d="M231.969 94.4825C232.025 93.7629 232.025 93.0401 231.969 92.3205C231.619 89.9855 233.281 89.8125 234.484 90.6125C235.336 91.1746 235.643 90.8503 236.189 90.6125C239.01 89.7477 240.562 90.8071 240.694 93.7474C240.694 94.8068 240.694 95.9094 240.694 96.9472C240.694 97.9849 241.043 98.9146 239.36 98.9362C237.676 98.9578 237.917 98.093 237.917 97.0769C237.917 96.0607 237.917 94.9149 237.807 93.8555C237.822 93.6528 237.788 93.4496 237.71 93.2618C237.632 93.0739 237.51 92.9065 237.356 92.7725C237.201 92.6386 237.018 92.5418 236.819 92.4896C236.621 92.4374 236.413 92.4313 236.211 92.4718C235.271 92.4718 234.702 92.9691 234.746 94.0068C234.79 95.0446 234.746 96.1688 234.746 97.2282C234.746 98.2876 234.899 98.9146 233.456 98.9578C232.013 99.0011 231.925 98.1363 231.969 97.0985C232.013 96.0607 231.969 95.304 231.969 94.4825Z" fill="#172147"/>
<path d="M128.151 93.2716C127.298 91.3907 125.811 91.888 124.412 92.0825C123.887 92.0825 123.187 92.8392 123.012 91.6934C122.903 90.8718 123.34 90.5908 124.062 90.5043C126.249 90.18 128.676 89.6611 130.206 91.4339C131.737 93.2068 130.775 95.9093 130.928 98.1794C130.928 98.5902 130.6 98.9577 130.25 98.8496C128.063 98.1362 126.008 99.3901 123.953 98.655C123.472 98.5325 123.047 98.2516 122.749 97.8586C122.451 97.4656 122.297 96.984 122.313 96.493C122.293 96.0106 122.438 95.5356 122.723 95.1438C123.008 94.7519 123.418 94.4658 123.887 94.331C125.243 93.7905 126.664 93.5743 128.151 93.2716Z" fill="#1A2449"/>
<path d="M156.948 94.6558C156.948 94.137 156.948 93.5964 156.948 93.0559C156.948 90.2886 156.948 90.3102 159.878 90.8939C160.402 90.8799 160.916 90.7545 161.387 90.5264C164.011 89.7697 165.476 90.6993 165.76 93.2938C165.76 94.7207 165.76 96.1692 165.76 97.6178C165.76 98.5258 165.476 98.915 164.492 98.8718C163.508 98.8285 162.852 98.8718 162.917 97.661C162.983 96.4503 162.917 95.1531 162.917 93.8991C162.917 92.9695 162.48 92.3641 161.409 92.429C160.337 92.4938 159.878 92.883 159.856 93.8775C159.834 94.872 159.856 96.0395 159.856 97.0989C159.856 98.1583 160.097 98.8718 158.61 98.8934C157.123 98.915 156.992 98.1583 157.057 97.0557C157.123 95.953 156.948 95.4774 156.948 94.6558Z" fill="#1A2449"/>
<path d="M150.345 98.8063C149.739 98.8851 149.123 98.8376 148.537 98.6668C147.951 98.496 147.408 98.2057 146.942 97.8146C146.477 97.4235 146.099 96.9403 145.834 96.3962C145.569 95.852 145.422 95.2589 145.403 94.6552C145.28 93.7036 145.451 92.7376 145.894 91.8838C146.336 91.0301 147.029 90.3285 147.882 89.8713C148.735 89.4141 149.708 89.2226 150.673 89.322C151.638 89.4213 152.55 89.8068 153.289 90.4279C154.029 91.049 154.561 91.8767 154.816 92.8022C155.071 93.7278 155.037 94.708 154.719 95.6141C154.4 96.5203 153.812 97.31 153.031 97.8797C152.251 98.4494 151.314 98.7724 150.345 98.8063Z" fill="#1B254A"/>
<path d="M247.144 98.8071C245.984 98.7813 244.882 98.301 244.081 97.4718C243.279 96.6427 242.843 95.5326 242.869 94.3858C242.895 93.239 243.381 92.1494 244.22 91.3568C245.058 90.5641 246.181 90.1333 247.341 90.1591C247.944 90.0964 248.553 90.163 249.128 90.3542C249.702 90.5453 250.228 90.8567 250.67 91.267C251.112 91.6773 251.46 92.177 251.689 92.732C251.918 93.2869 252.024 93.8842 251.998 94.4831C252.002 95.0933 251.875 95.6973 251.626 96.2556C251.377 96.8138 251.011 97.3135 250.552 97.7219C250.094 98.1303 249.553 98.4382 248.966 98.6252C248.378 98.8123 247.757 98.8743 247.144 98.8071Z" fill="#1B254A"/>
<path d="M263.565 98.8067C262.723 98.7272 261.921 98.4076 261.259 97.8868C260.596 97.366 260.101 96.6663 259.833 95.8726C259.565 95.0788 259.535 94.2252 259.748 93.4152C259.961 92.6052 260.407 91.8737 261.032 91.3093C261.657 90.745 262.434 90.3721 263.269 90.2359C264.104 90.0997 264.961 90.206 265.736 90.5419C266.511 90.8779 267.171 91.4291 267.636 92.1286C268.101 92.8281 268.35 93.6458 268.354 94.4827C268.378 95.0929 268.267 95.7009 268.029 96.2644C267.791 96.8279 267.432 97.3331 266.976 97.7449C266.52 98.1567 265.978 98.4651 265.389 98.6485C264.8 98.8319 264.177 98.8859 263.565 98.8067Z" fill="#1B254A"/>
<path d="M208.879 96.3208C208.879 97.0775 209.273 97.7045 208.704 98.2018C207.52 98.7389 206.219 98.9729 204.92 98.8822C203.621 98.7916 202.365 98.3791 201.27 97.6829C200.516 97.0239 200.031 96.1157 199.907 95.1286C199.782 94.1415 200.025 93.1432 200.592 92.3211C201.328 91.3435 202.385 90.6493 203.582 90.3575C204.778 90.0656 206.04 90.1942 207.152 90.7212C207.648 90.9355 208.085 91.2658 208.424 91.6838C208.763 92.1019 208.994 92.5951 209.098 93.121C209.404 94.4399 209.207 95.283 207.436 95.1533C205.979 95.0774 204.519 95.0774 203.063 95.1533C203.981 97.6396 205.031 97.8342 208.879 96.3208Z" fill="#192348"/>
<path d="M173.806 93.3152C172.691 91.4343 171.226 91.8667 169.827 92.1045C169.346 92.1045 168.777 92.6234 168.624 91.7369C168.471 90.8505 168.777 90.8505 169.39 90.5695C170.113 90.1332 170.943 89.9012 171.791 89.8989C172.638 89.8966 173.47 90.124 174.196 90.5564C174.922 90.9888 175.514 91.6096 175.908 92.3514C176.302 93.0931 176.482 93.9275 176.43 94.7637C176.374 95.4834 176.374 96.2061 176.43 96.9258C176.78 98.9797 175.49 99.4121 174.113 98.7635C172.735 98.1149 171.926 99.131 170.855 98.9581C169.237 98.7202 167.946 98.2662 167.815 96.5366C167.684 94.807 168.821 94.18 170.33 93.9206L173.806 93.3152Z" fill="#182247"/>
<path d="M35.7901 93.2943C34.8718 91.4133 33.3849 91.889 31.9855 92.0835C31.5263 92.0835 30.9359 92.6889 30.6954 91.8457C30.4549 91.0025 30.8923 90.7864 31.6138 90.5053C35.4841 89.0351 38.5014 90.9377 38.5014 94.8293C38.4576 95.3617 38.4576 95.8968 38.5014 96.4292C38.8294 98.7425 37.8456 99.1749 35.7246 98.5912C34.73 98.5117 33.729 98.5699 32.7508 98.7642C32.093 98.8504 31.4275 98.6761 30.8992 98.2792C30.3708 97.8824 30.0225 97.2951 29.9301 96.6454C29.7333 95.0239 30.8266 94.2456 32.3353 93.9429L35.7901 93.2943Z" fill="#182247"/>
<path d="M288.973 95.1316C290.897 98.3098 293.062 97.0991 295.117 96.4072C295.358 97.0342 295.577 97.6828 295.117 98.2017C294.002 99.3692 289.17 99.0016 287.661 97.6612C286.906 96.8878 286.46 95.8693 286.408 94.7954C286.356 93.7214 286.7 92.6653 287.377 91.8238C288.287 90.949 289.471 90.4062 290.735 90.2844C291.998 90.1626 293.266 90.4691 294.33 91.1535C294.832 91.5495 295.209 92.0802 295.415 92.6822C295.62 93.2841 295.646 93.9318 295.489 94.5479C295.139 95.737 293.783 95.0019 292.909 95.0884C291.599 95.1715 290.285 95.186 288.973 95.1316Z" fill="#192248"/>
<path d="M21.9055 95.1312C23.1956 97.6824 24.923 97.4662 26.8253 96.8392C27.2189 96.8392 27.9404 95.7366 28.181 97.0554C28.181 97.704 28.1809 98.2661 27.4156 98.504C26.3466 98.8926 25.2038 99.0419 24.0694 98.9409C22.935 98.84 21.8375 98.4913 20.8559 97.9202C20.0486 97.3924 19.4693 96.5861 19.2308 95.6587C18.9922 94.7313 19.1117 93.7494 19.5659 92.9043C20.0128 91.908 20.8042 91.1018 21.798 90.6303C22.7918 90.1588 23.9229 90.0529 24.9885 90.3316C25.8595 90.3475 26.6914 90.6923 27.3135 91.2953C27.9355 91.8984 28.3007 92.7139 28.334 93.5746C28.4871 94.7204 28.334 95.2177 26.9784 95.1528C25.6227 95.088 23.9172 95.1312 21.9055 95.1312Z" fill="#192248"/>
<path d="M66.2055 95.1311C67.7798 97.6823 68.3919 97.7904 72.1091 96.4067C72.612 97.5958 72.4809 98.2444 70.9941 98.5687C66.6209 99.7794 62.9475 97.5742 63.4723 93.7907C63.5649 92.9375 63.9415 92.139 64.5431 91.5207C65.1448 90.9023 65.9372 90.4992 66.7958 90.3747C67.6529 90.0658 68.5832 90.0139 69.47 90.2255C70.3568 90.437 71.1608 90.9025 71.7812 91.5638C72.1499 91.9625 72.4064 92.4497 72.5254 92.977C72.6443 93.5043 72.6214 94.0532 72.459 94.569C72.0873 95.5203 70.8629 94.9581 70.032 95.023C68.8512 95.1743 67.6923 95.1311 66.2055 95.1311Z" fill="#192248"/>
<path d="M296.998 96.3633C298.966 96.7092 300.606 98.1577 302.333 96.5362C301.393 95.3039 299.928 95.7795 298.812 95.2606C298.383 95.1166 298.001 94.8593 297.708 94.5164C297.415 94.1735 297.222 93.758 297.151 93.3148C297.104 92.8762 297.194 92.434 297.409 92.0475C297.624 91.6611 297.954 91.3489 298.353 91.1528C299.181 90.6815 300.103 90.3948 301.055 90.3127C302.007 90.2305 302.965 90.3549 303.864 90.6772C304.019 90.7035 304.166 90.7626 304.296 90.8505C304.426 90.9384 304.535 91.053 304.616 91.1864C304.697 91.3198 304.748 91.4689 304.765 91.6236C304.782 91.7782 304.766 91.9348 304.716 92.0825C304.476 93.2932 303.82 92.4284 303.317 92.3203C302.814 92.2122 302.267 92.0392 301.743 91.996C301.218 91.9527 300.278 91.996 300.168 92.6662C300.059 93.3364 300.89 93.4662 301.524 93.5743C302.331 93.6777 303.119 93.8962 303.864 94.2228C304.188 94.337 304.479 94.5311 304.707 94.7866C304.935 95.0422 305.094 95.351 305.168 95.6839C305.242 96.0169 305.23 96.363 305.132 96.6899C305.034 97.0167 304.853 97.3135 304.607 97.5523C303.47 99.109 298.572 99.5414 297.304 98.1793C296.998 97.8118 297.107 97.1416 296.998 96.3633Z" fill="#1A2449"/>
<path d="M52.6924 90.4608C57.328 89.3581 55.7536 93.8551 57.481 95.3253C59.4708 94.1578 57.6341 89.423 62.2915 90.4608C61.3513 92.8822 60.4111 95.2604 59.5802 97.6603C59.2085 98.6764 58.5962 98.9142 57.5467 98.9142C57.0692 99.005 56.5747 98.9093 56.167 98.6472C55.7593 98.3852 55.4701 97.9772 55.3601 97.5089C54.5292 95.1739 53.5889 92.8606 52.6924 90.4608Z" fill="#192348"/>
<path d="M256.83 92.7753C256.83 94.3752 256.83 95.9751 256.83 97.575C256.83 98.656 256.371 98.937 255.365 98.9154C254.36 98.8938 253.9 98.6343 253.922 97.5533C253.922 94.2671 253.922 90.9808 253.922 87.6946C253.922 86.4839 254.644 86.5271 255.518 86.5055C256.393 86.4838 256.83 86.7865 256.809 87.7162C256.809 89.4026 256.83 91.0889 256.83 92.7753Z" fill="#2A3355"/>
<path d="M44.6238 98.8067C44.2403 98.8775 43.8462 98.8694 43.466 98.783C43.0857 98.6967 42.7276 98.5338 42.4138 98.3046C42.1 98.0755 41.8372 97.7849 41.6419 97.4509C41.4465 97.117 41.3229 96.7469 41.2785 96.3637C40.9505 94.6557 41.8469 92.8179 40.2945 91.1532C39.9009 90.7208 40.9505 88.7534 41.672 87.7156C41.8907 87.4345 43.8586 86.6562 43.9898 88.602C43.9898 89.6398 44.0992 90.3749 45.433 90.2235C46.089 90.2235 46.7449 90.2235 46.6575 91.1316C46.57 92.0396 45.9795 91.8667 45.4766 91.8234C44.2084 91.6937 43.8367 92.3207 44.0117 93.4017C44.1866 94.4827 43.2901 96.342 45.1487 97.1636C45.6954 97.4014 46.8542 96.8177 46.6137 98.0933C46.3732 99.3688 45.2361 98.8067 44.6238 98.8067Z" fill="#182247"/>
<path d="M136.7 98.8065C134.514 98.8065 133.552 97.7903 133.355 95.7364C133.202 94.2879 134.011 92.7096 132.458 91.4124C132.065 91.0665 133.202 88.9477 133.836 87.737C133.989 87.4775 135.563 87.564 135.585 87.737C135.71 88.5308 136.083 89.2662 136.651 89.84C137.22 90.4138 137.956 90.7973 138.756 90.9368C139.062 90.9368 138.756 92.061 137.794 91.9745C136.832 91.888 135.935 91.9745 136.154 93.3798C136.372 94.7851 135.476 96.2986 137.094 97.2715C137.662 97.6174 139.062 96.839 138.712 98.3092C138.45 99.3254 137.334 98.8065 136.7 98.8065Z" fill="#182247"/>
<path d="M218.587 95.6067C219.243 98.893 217.254 98.893 215.373 98.8714C212.224 98.8714 210.453 97.0553 210.65 94.2447C210.71 93.6166 210.904 93.0082 211.219 92.4594C211.533 91.9105 211.962 91.4337 212.476 91.0601C212.99 90.6865 213.578 90.4246 214.202 90.2916C214.825 90.1585 215.471 90.1574 216.095 90.2882C217.931 90.4179 219.309 90.9584 218.522 93.3582C217.122 92.4718 215.723 90.8287 214.149 92.7096C213.677 93.2165 213.415 93.8801 213.415 94.569C213.415 95.2578 213.677 95.9214 214.149 96.4283C215.635 98.1579 217.122 97.0985 218.587 95.6067Z" fill="#1C254A"/>
<path d="M120.673 93.423C119.295 92.4717 117.896 90.8286 116.3 92.6879C116.038 92.9416 115.83 93.2443 115.688 93.5784C115.546 93.9126 115.473 94.2713 115.473 94.6337C115.473 94.9962 115.546 95.3549 115.688 95.6891C115.83 96.0232 116.038 96.3259 116.3 96.5796C117.852 98.1146 119.23 97.0336 120.454 95.758C121.416 98.0497 120.236 98.6983 118.377 98.8713C115.075 99.1956 112.692 97.4227 112.648 94.5473C112.661 93.9229 112.807 93.3083 113.077 92.7433C113.346 92.1784 113.732 91.6757 114.21 91.2679C114.689 90.8602 115.248 90.5564 115.853 90.3765C116.458 90.1965 117.094 90.1443 117.721 90.2232C120.454 90.2881 120.848 90.6989 120.673 93.423Z" fill="#1B254A"/>
<path d="M175.818 23.6766H175.075C174.922 27.8709 175.075 32.0868 175.075 36.2811C174.944 37.1676 174.375 37.4702 173.522 37.3621C172.669 37.254 172.91 36.0001 172.582 35.2001C172.459 33.96 172.18 32.7398 171.751 31.568C172.364 29.9151 172.646 28.1601 172.582 26.4007C172.352 25.0917 172.352 23.7533 172.582 22.4443C173.763 20.6498 173.151 18.6391 173.194 16.7149C173.194 13.9692 173.194 11.2234 173.194 8.45605C174.371 8.82213 175.468 9.4013 176.43 10.164L175.84 10.7045C174.54 14.4601 174.434 18.5188 175.534 22.3362C175.643 22.8551 175.993 23.1361 175.818 23.6766Z" fill="#5A546F"/>
<path d="M179.076 92.6886C179.076 91.0887 179.076 89.4888 179.076 87.8889C179.076 86.8944 179.36 86.4836 180.454 86.5052C181.547 86.5268 181.919 86.6998 181.897 87.8024C181.897 91.0887 181.897 94.2884 181.897 97.6396C181.897 98.8287 181.306 98.8719 180.388 98.8935C179.47 98.9152 179.054 98.4179 179.076 97.4666C179.12 95.8667 179.076 94.2668 179.076 92.6886Z" fill="#162046"/>
<path d="M11.891 94.4826V91.4557C11.891 90.9152 11.891 90.3315 12.6563 90.3099C14.3181 90.3099 15.9362 91.1314 17.6417 90.3099C18.1228 90.0937 18.2539 90.7639 18.2539 91.2179C18.2539 91.6719 18.254 92.4719 17.5543 92.3854C14.0339 91.9746 14.7554 94.4177 14.7336 96.3635C14.7336 96.7311 14.7336 97.077 14.7336 97.4445C14.7336 98.4174 14.5368 98.8931 13.3998 98.8931C12.2628 98.8931 11.8036 98.439 11.891 97.3148C11.9785 96.1905 11.891 95.3906 11.891 94.4826Z" fill="#242D51"/>
<path d="M143.435 94.4829C143.435 95.4558 143.435 96.4287 143.435 97.4016C143.435 98.3746 143.282 98.8934 142.123 98.8934C140.964 98.8934 140.483 98.6124 140.527 97.4016C140.527 95.4558 140.527 93.4884 140.527 91.5426C140.527 90.4616 141.008 90.2021 141.992 90.2021C142.976 90.2021 143.501 90.4832 143.435 91.5426C143.369 92.602 143.435 93.5533 143.435 94.4829Z" fill="#2C3557"/>
<path d="M48.2318 94.3526C48.2318 93.3797 48.2318 92.4068 48.2318 91.4339C48.2318 90.461 48.9753 90.3097 49.8061 90.2664C50.637 90.2232 51.0525 90.6123 51.0306 91.4988C51.0306 93.5311 51.0306 95.5633 51.0306 97.5956C51.0306 98.6983 50.5933 98.8928 49.6093 98.9145C48.6253 98.9361 48.1662 98.5469 48.2318 97.5308C48.2973 96.5146 48.2318 95.412 48.2318 94.3526Z" fill="#162046"/>
<path d="M281.582 94.4831C281.582 93.5102 281.582 92.5373 281.582 91.5644C281.582 90.5915 282.238 90.3753 283.113 90.3537C283.988 90.3321 284.403 90.6131 284.381 91.5428C284.381 93.5751 284.381 95.6074 284.381 97.6397C284.381 98.6991 284.031 99.0017 282.982 99.0017C281.932 99.0017 281.517 98.7207 281.582 97.6613C281.648 96.6019 281.582 95.456 281.582 94.4831Z" fill="#162046"/>
<path d="M132.262 58.6582C131.999 59.4798 130.337 58.8744 130.6 60.2149C130.753 60.3662 130.818 60.4959 130.753 60.6257C130.687 60.7554 130.622 60.8418 130.578 60.8418C126.064 59.1699 121.68 57.1756 117.459 54.8747L118.136 54.3558C118.29 54.0748 118.464 54.0748 118.639 54.3558L119.798 55.4152C120.957 54.6801 121.876 55.4152 122.772 55.9341C125.526 57.8209 128.906 58.5945 132.218 58.0961C132.282 58.1744 132.32 58.2701 132.328 58.3704C132.336 58.4708 132.313 58.5712 132.262 58.6582Z" fill="#353535"/>
<path d="M164.863 63.9988C166.875 61.8368 170.024 61.6422 172.32 59.9558L166.547 57.0803C166.263 56.8641 166.263 56.6695 166.547 56.4966C168.952 57.6857 171.707 58.1613 173.675 60.172C170.936 61.8537 167.969 63.1422 164.863 63.9988Z" fill="#474549"/>
<path d="M162.961 4.37005C162.961 9.04 162.152 13.7316 163.355 18.3799C163.158 19.7419 163.858 21.1689 163.027 22.4877C162.98 22.5388 162.922 22.5797 162.858 22.6076C162.794 22.6356 162.725 22.65 162.655 22.65C162.585 22.65 162.516 22.6356 162.452 22.6076C162.388 22.5797 162.33 22.5388 162.283 22.4877C162.283 16.2611 162.283 10.0345 162.108 3.80793C162.295 3.78551 162.484 3.82987 162.64 3.93297C162.796 4.03607 162.91 4.19111 162.961 4.37005Z" fill="#010101"/>
<path d="M157.932 67.2412C156.161 68.0844 154.412 68.9708 152.597 69.7708C150.782 70.5707 149.076 69.0357 147.415 68.3222C147.456 68.1314 147.553 67.9566 147.692 67.8185C147.832 67.6805 148.009 67.5852 148.202 67.5439C151.46 69.4032 154.215 67.198 157.145 66.4629C157.338 66.5042 157.515 66.5995 157.654 66.7375C157.794 66.8756 157.89 67.0504 157.932 67.2412Z" fill="#313131"/>
<path d="M143.632 87.5642C143.632 89.0559 142.538 88.6235 141.817 88.6884C141.095 88.7533 140.505 88.429 140.549 87.4777C140.549 86.1372 141.642 86.5912 142.364 86.5264C143.085 86.4615 143.632 86.7642 143.632 87.5642Z" fill="#2B3457"/>
<path d="M130.512 60.8418V60.2148C133.289 61.5985 136.569 62.0526 138.778 64.5389C135.919 63.5468 133.153 62.3097 130.512 60.8418Z" fill="#3E3B36"/>
<path d="M157.932 67.2421L157.32 66.8097C157.845 65.5125 159.506 65.599 160.184 64.4315C160.277 64.2274 160.42 64.0492 160.6 63.9126C161.693 64.1072 162.786 64.8206 163.858 63.9126C162.567 66.3773 159.922 66.1827 157.932 67.2421Z" fill="#262626"/>
<path d="M49.7406 88.6456C48.6254 88.6456 48.1444 88.6456 48.1663 87.5429C48.1663 86.1809 49.1502 86.6133 49.8718 86.5268C50.5933 86.4403 51.0743 86.9376 51.0525 87.8024C51.0087 89.0131 50.1123 88.5591 49.7406 88.6456Z" fill="#162046"/>
<path d="M283.113 88.6456C281.976 88.6456 281.473 88.6456 281.495 87.5429C281.495 86.1809 282.501 86.6133 283.222 86.5268C283.944 86.4403 284.403 86.9376 284.403 87.8024C284.359 89.0347 283.419 88.5158 283.113 88.6456Z" fill="#162046"/>
<path d="M139.106 64.5602L141.992 63.7603C142.078 63.8195 142.15 63.8967 142.203 63.9863C142.256 64.0759 142.288 64.1758 142.298 64.2791C142.473 65.1223 143.676 64.9926 143.829 65.8358C143.829 66.2898 143.501 66.4195 143.173 66.5493C141.716 66.1116 140.342 65.4396 139.106 64.5602Z" fill="#494640"/>
<path d="M143.173 66.5493L143.785 66.0736C144.596 65.8984 145.442 65.9769 146.206 66.2985C146.97 66.62 147.614 67.1686 148.049 67.8681L147.415 68.3221L143.173 66.5493Z" fill="#2F2F2F"/>
<path d="M145.818 42.5944V41.9458C145.862 41.6796 145.976 41.4296 146.149 41.2208C146.322 41.0121 146.547 40.852 146.802 40.7567C149.907 39.8919 150.17 37.6218 150.038 34.9409C149.907 32.26 150.038 29.8386 150.038 27.2874C150.055 27.1358 150.116 26.9921 150.213 26.8734C150.31 26.7546 150.439 26.6657 150.585 26.6172C151.132 26.6172 151.547 26.6172 151.656 27.2658C151.503 31.4112 151.591 35.5619 151.919 39.6974L153.602 40.8C153.555 40.9857 153.456 41.1547 153.317 41.2882C153.178 41.4218 153.004 41.5147 152.815 41.5567C151.427 41.3288 150.001 41.5486 148.748 42.1837C148.33 42.4809 147.845 42.6735 147.334 42.745C146.824 42.8166 146.304 42.7649 145.818 42.5944Z" fill="#423D38"/>
<path d="M162.196 44.5836V28.0226C162.264 27.9817 162.34 27.9553 162.418 27.9451C162.497 27.935 162.578 27.9413 162.654 27.9637C162.73 27.9862 162.801 28.0241 162.861 28.0752C162.922 28.1264 162.97 28.1894 163.005 28.2604C163.44 29.3139 163.598 30.4596 163.464 31.5899C163.333 36.0437 164.098 40.519 163.005 44.9512C162.48 45.4917 162.218 45.3187 162.196 44.5836Z" fill="black"/>
<path d="M162.196 44.5833L162.677 45.1022C163.333 44.8211 163.836 44.8643 163.945 45.7075C163.62 46.0078 163.214 46.21 162.777 46.2904C162.339 46.3708 161.887 46.3261 161.474 46.1615C161.205 46.0756 160.954 45.9439 160.731 45.7724C159.168 44.7385 157.487 43.8895 155.724 43.2428C154.74 42.6807 153.537 42.4861 152.969 41.2754L153.537 40.8862L162.196 44.5833Z" fill="#33312E"/>
<path d="M151.853 39.7837C150.694 37.6217 151.482 35.33 151.351 33.1031C151.219 30.8762 151.351 29.0602 151.351 27.0279C151.351 26.6387 151.635 26.5738 151.853 26.4009C151.853 30.869 151.853 35.33 151.853 39.7837Z" fill="#554F6B"/>
<path d="M162.852 28.023H162.261C162.261 26.2069 162.261 24.3908 162.261 22.5964H162.852C162.907 22.5714 162.968 22.5578 163.029 22.5563C163.091 22.5548 163.151 22.5654 163.208 22.5876C163.266 22.6098 163.318 22.643 163.361 22.6853C163.405 22.7277 163.44 22.7783 163.464 22.8342C163.357 24.5756 163.505 26.3231 163.901 28.023C163.757 28.1507 163.57 28.2212 163.377 28.2212C163.183 28.2212 162.996 28.1507 162.852 28.023Z" fill="#353537"/>
<path d="M153.253 27.4606C153.842 27.4365 154.428 27.5538 154.961 27.8022C155.494 28.0507 155.958 28.4231 156.314 28.8875C155.719 28.9652 155.114 28.872 154.571 28.619C154.028 28.3659 153.571 27.9638 153.253 27.4606Z" fill="#554F6B"/>
<path d="M129.091 36.1085C129.091 32.1088 129.091 28.455 129.091 24.8012C129.091 23.9364 129.091 23.2229 130.097 22.8338L139.696 18.5098C139.696 22.6392 139.696 26.3795 139.696 30.1198C139.729 30.4725 139.644 30.8262 139.455 31.1269C139.265 31.4275 138.981 31.6585 138.646 31.7845C135.541 33.1466 132.458 34.5519 129.091 36.1085Z" fill="#FDFDFD"/>
<path d="M139.805 11.4617C141.27 16.456 138.646 18.5963 134.186 20.1098C128.894 22.0123 129.528 22.2718 128.894 16.8451C128.216 11.0293 130.337 8.04574 135.848 6.35937C139.915 5.12702 139.805 4.71624 139.805 8.93216V11.4617Z" fill="#C42D18"/>
<path d="M129.047 49.3828C129.047 45.9885 129.047 42.5941 129.047 39.1998C128.941 38.5393 129.076 37.8631 129.429 37.2924C129.782 36.7218 130.329 36.2942 130.972 36.0865C133.333 35.1352 135.651 34.0974 137.903 32.9516C139.608 32.0867 139.98 32.7353 139.849 34.292C139.849 34.8325 139.849 35.373 139.849 35.9135C139.63 38.8322 141.073 42.3995 139.259 44.5615C137.444 46.7236 134.076 47.2424 131.387 48.518C130.731 48.8207 130.119 49.1666 129.485 49.5126C129.244 49.6639 129.113 49.6639 129.047 49.3828Z" fill="#C42D18"/>
<path d="M148.114 27.7197C146.059 28.5845 143.982 29.3844 141.948 30.3357C140.767 30.8978 140.396 30.6384 140.418 29.3628C140.418 26.0765 140.614 22.8768 140.418 19.5473C140.265 17.6015 142.254 17.9041 142.604 16.7583C144.485 15.9367 146.321 15.0287 148.18 14.2071C149.033 13.8179 149.864 13.191 150.913 13.6666C151.197 17.4717 150.913 21.2985 150.913 25.1036C150.913 25.8387 150.913 26.5522 150.038 26.8332H149.907C149.754 27.9791 149.033 28.044 148.114 27.7197Z" fill="#FEFEFE"/>
<path d="M128.326 23.5693C128.326 27.7853 128.326 31.5255 128.326 35.2658C128.326 36.282 127.692 36.6495 126.948 36.9954C124.477 38.1197 121.985 39.1574 119.536 40.3465C118.443 40.8654 117.874 40.8006 117.896 39.3953C117.896 36.0874 117.896 32.7795 117.896 29.4932C117.871 29.0912 117.983 28.6926 118.212 28.3599C118.442 28.0272 118.777 27.7795 119.164 27.6555L128.326 23.5693Z" fill="#C42C17"/>
<path d="M121.766 12.4344C124.149 12.4344 125.833 10.5751 128.326 10.1211C128.326 14.0343 128.326 17.8395 128.326 21.6446C128.326 22.0338 128.107 22.6608 127.823 22.7905C124.893 24.1958 121.941 25.5795 118.945 26.8118C118.093 27.1577 117.962 26.2929 117.962 25.6443C117.962 22.3365 117.962 19.0286 117.962 15.7423C117.962 14.791 118.552 14.3586 119.317 13.9262C120.082 13.4938 121.285 13.4074 121.788 12.4128L121.766 12.4344Z" fill="#C42C17"/>
<path d="M148.114 27.7201C148.726 27.3526 149.579 27.5904 150.038 26.877C151.328 28.4552 150.563 30.3145 150.738 32.0442C150.738 32.7576 150.738 33.4927 150.738 34.2062C151.482 38.2924 150.104 41.0597 145.796 42.0543C140.374 44.3676 140.746 44.346 140.243 38.4869C139.805 33.5143 141.161 30.3794 146.256 29.1471C147.021 28.9525 148.005 28.6714 148.114 27.7201Z" fill="#C42C17"/>
<path d="M118.595 54.3129H118.093C118.224 50.1403 117.393 45.946 118.53 41.8165C120.126 42.6381 120.716 41.3841 121.329 40.4328L128.326 37.2114C128.326 41.1679 128.326 44.7352 128.326 48.2809C128.326 49.643 127.582 50.1186 126.533 50.5943C123.953 51.805 121.285 53.0806 118.595 54.3129Z" fill="#C42C17"/>
<path d="M152.969 41.2758C155.759 42.4115 158.482 43.7036 161.124 45.1458C160.792 45.7253 160.34 46.2289 159.797 46.6238C159.255 47.0188 158.634 47.296 157.976 47.4375C155.896 48.2368 153.897 49.2286 152.006 50.3995C151.743 50.4942 151.457 50.5099 151.185 50.4445C150.913 50.3791 150.666 50.2356 150.476 50.0319C149.798 48.2158 147.896 48.2807 146.518 47.5456C145.141 46.8105 143.107 45.9673 141.183 45.0809L145.818 42.5946C148.289 42.3135 150.192 39.6975 152.969 41.2758Z" fill="#DA9223"/>
<path d="M150.454 50.0317H151.941C154.28 50.9398 156.467 52.1938 158.828 53.1018C159.338 53.2586 159.824 53.4842 160.272 53.772C161.474 54.5936 161.583 55.307 160.118 55.934C159.003 56.4529 157.932 56.9286 156.773 57.5123C156.084 57.681 155.422 57.9429 154.805 58.2906C153.809 59.1513 152.531 59.6256 151.208 59.6256C149.885 59.6256 148.607 59.1513 147.611 58.2906C145.427 57.5335 143.354 56.4939 141.445 55.199V54.8314L148.552 51.6749C149.382 51.2425 150.323 51.1127 150.454 50.0317Z" fill="#DB9323"/>
<path d="M130.687 50.508C130.491 50.0756 130.447 49.7513 131.037 49.4918C133.661 48.3676 136.263 47.2001 138.865 46.011C139.276 45.8413 139.721 45.7686 140.165 45.7986C140.609 45.8286 141.04 45.9605 141.423 46.1839C144.113 47.4163 146.824 48.6054 149.951 49.9891L140.92 54.3131C140.763 54.5347 140.538 54.7018 140.28 54.7909C140.021 54.8801 139.74 54.8869 139.477 54.8104C136.416 53.6429 133.093 52.9726 130.687 50.508Z" fill="#FDFDFD"/>
<path d="M132.24 58.0958C131.202 58.719 130.002 59.0267 128.789 58.9806C127.576 58.9344 126.404 58.5365 125.417 57.8364C123.603 56.8851 121.635 56.1717 119.754 55.3717C119.208 54.3772 120.17 54.3772 120.629 54.161C123.384 52.9286 126.183 51.7395 128.96 50.5288C132.13 51.0477 134.732 52.9719 137.706 53.9664C138.209 54.1394 138.756 54.4204 138.821 55.0042C138.887 55.5879 138.165 55.8474 137.728 55.9987C135.97 56.8684 134.132 57.5706 132.24 58.0958Z" fill="#FDFDFD"/>
<path d="M132.24 58.0962L138.799 55.0045L128.872 50.5292C128.872 50.1616 128.872 49.7725 128.872 49.3833H129.244L130.512 50.4427C132.896 51.4805 135.257 52.6047 137.662 53.5344C138.575 54.1185 139.667 54.3637 140.745 54.2262L141.292 54.7667C141.073 55.1775 140.877 55.6748 140.221 55.3505L132.13 58.5718L132.24 58.0962Z" fill="#2E2E2D"/>
<path d="M121.329 40.4321C121.176 42.4428 120.345 43.0914 118.53 41.8158L121.329 40.4321Z" fill="#C42C17"/>
<path d="M150.191 26.8552C151.154 25.9255 150.869 24.6932 150.782 23.6122C150.541 20.261 151.482 16.8234 150.279 13.5156C150.104 13.4075 150.06 13.2994 150.104 13.1913C150.148 13.0832 150.235 13.0399 150.279 13.0399L150.891 12.4778C151.029 12.467 151.168 12.467 151.307 12.4778C151.307 16.2829 151.307 20.1097 151.307 23.9365C151.307 24.758 150.935 25.7309 151.853 26.4011C151.674 26.6005 151.506 26.8099 151.35 27.0281L150.191 26.8552Z" fill="#1D1D1D"/>
<path d="M150.192 13.0396V13.5152C147.848 15.0139 145.27 16.1171 142.56 16.7798C144.893 15.1507 147.468 13.8889 150.192 13.0396Z" fill="#544B45"/>
<path d="M163.311 22.7477L163.092 22.618H162.808C162.808 21.191 162.064 19.6776 163.289 18.2939C166.194 20.012 169.253 21.4595 172.429 22.618C173.61 23.8936 173.15 25.3421 172.866 26.7906C169.351 26.3904 166.031 24.9854 163.311 22.7477Z" fill="#FCFCFC"/>
<path d="M161.124 45.8803C161.992 45.6056 162.924 45.6056 163.792 45.8803C166.153 45.6209 167.772 47.5451 169.914 48.0424C170.92 48.7558 172.648 48.7342 172.516 50.5719C170.82 51.1897 169.199 51.9947 167.684 52.9717C166.46 52.7555 165.629 54.0744 164.382 53.8149C162.436 56.1931 160.796 53.9446 159.047 53.469C157.27 52.8455 155.538 52.1014 153.865 51.2421C152.116 50.4206 152.422 49.6206 153.974 49.0801C156.297 47.885 158.684 46.8168 161.124 45.8803Z" fill="#DB9323"/>
<path d="M158.938 53.1881C160.709 53.707 162.349 55.0907 164.317 53.8151C163.311 56.0852 165.716 55.6528 166.503 56.496V57.0797C163.114 54.5934 159.944 56.6257 156.729 57.5986C157.67 56.0636 159.703 56.2798 160.884 55.0691C160.315 54.2043 159.222 54.161 158.457 53.6421C158.391 53.1881 158.457 52.9071 158.938 53.1881Z" fill="#3B3833"/>
<path d="M172.56 50.5727C171.992 49.2755 170.374 49.3403 169.543 48.4107C170.417 47.481 171.357 47.9134 172.298 48.2593C173.238 48.6053 173.697 48.9944 174.484 49.3403C175.087 49.5638 175.601 49.9732 175.949 50.5078C175.949 50.7456 175.949 50.9835 175.949 51.2213C174.881 50.7645 173.724 50.5432 172.56 50.5727Z" fill="#333132"/>
<path d="M167.684 52.9717C168.286 52.2488 169.035 51.6595 169.883 51.2423C170.73 50.825 171.658 50.5892 172.604 50.5503C171.162 51.7027 169.483 52.5292 167.684 52.9717Z" fill="#37342E"/>
<path d="M148.005 67.8684L143.741 66.0739C143.369 65.3388 141.904 65.728 141.992 64.474C144.685 62.8541 147.526 61.4862 150.476 60.3878C151.043 60.269 151.63 60.2939 152.185 60.4602C152.739 60.6265 153.242 60.9289 153.646 61.3391L154.871 61.8364C156.892 62.3918 158.806 63.2759 160.534 64.4524C160.381 66.6144 158.172 65.7712 157.276 66.809C156.52 67.0517 155.788 67.3629 155.089 67.7387C154.073 68.4961 152.841 68.9165 151.569 68.9398C150.296 68.9631 149.049 68.5881 148.005 67.8684Z" fill="#FDFDFD"/>
<path d="M153.69 61.3388C152.531 61.2091 151.503 60.2362 150.257 60.7767C149.667 61.0145 149.579 60.7767 149.689 60.2578C149.295 58.9174 147.874 59.1336 146.999 58.485C146.999 58.0526 146.999 57.7499 147.546 58.0309C148.639 58.807 149.95 59.2244 151.296 59.2244C152.641 59.2244 153.953 58.807 155.046 58.0309C155.28 57.8174 155.569 57.672 155.882 57.611C156.194 57.5499 156.518 57.5756 156.817 57.685C156.27 58.7228 155.111 58.8741 154.215 59.1552C152.378 59.5876 152.815 60.3443 153.69 61.3388Z" fill="#383633"/>
<path d="M160.578 64.4522C158.587 63.8161 156.685 62.9373 154.914 61.8362C157.21 61.5119 158.785 63.0469 160.6 63.9982L160.578 64.4522Z" fill="#343434"/>
<path d="M149.689 60.2583L150.257 60.7772L142.036 64.4742V63.7608L149.689 60.2583Z" fill="#4E4B44"/>
<path d="M147.546 58.0317L146.999 58.4857L140.439 55.4373L141.511 54.8535C143.195 56.4318 145.643 56.7345 147.546 58.0317Z" fill="#4E4739"/>
<path d="M276.072 94.4825C276.072 95.8229 276.4 97.2931 274.411 97.2499C272.814 97.2499 272.596 95.9527 272.618 94.8068C272.639 93.6609 272.902 91.9962 274.673 91.9313C277.013 91.8232 275.701 93.6609 276.072 94.4825Z" fill="#F4F5F6"/>
<path d="M96.6863 94.31C96.6863 95.845 96.9705 97.2719 95.0463 97.2503C93.1222 97.2287 93.2315 95.9531 93.2533 94.8072C93.2752 93.6614 93.5157 92.0182 95.3087 91.9101C97.7139 91.802 96.2052 93.7262 96.6863 94.31Z" fill="#F4F4F6"/>
<path d="M175.862 50.5936L174.178 49.9234C173.195 46.1056 173.061 42.1226 173.785 38.2485C173.785 37.8161 174.288 37.5351 174.703 37.3405C176.89 36.1081 178.333 37.3405 179.666 38.9404C179.798 39.8052 180.563 40.1079 181.197 40.3024C181.797 40.4095 182.368 40.6393 182.872 40.9773C183.377 41.3152 183.805 41.7537 184.128 42.2647C184.451 42.7757 184.663 43.3478 184.749 43.9444C184.836 44.541 184.795 45.1489 184.63 45.7291C184.455 47.9526 184.455 50.1862 184.63 52.4097C184.63 54.269 183.996 54.3123 182.443 53.6204C180.344 52.5394 178.092 51.6098 175.862 50.5936Z" fill="#36297F"/>
<path d="M179.666 38.9404L175.293 37.1027C174.922 37.1027 174.812 36.8648 174.637 36.6703C173.478 35.6757 174.113 34.3569 174.069 33.1894C174.069 30.6382 174.069 28.0654 174.069 25.5143C174.069 24.8441 173.61 23.7847 174.987 23.7847C177.677 25.0603 180.344 26.3358 183.056 27.5682C183.93 27.9573 184.521 28.3249 184.499 29.4708C184.499 33.211 184.499 36.9513 184.499 40.9943L179.666 38.9404Z" fill="#FBFBFB"/>
<path d="M175.818 23.6772C175.25 23.3369 174.793 22.8418 174.502 22.2513C174.211 21.6607 174.099 20.9998 174.178 20.3477C174.309 17.5803 174.178 14.813 174.178 12.0456C174.178 10.8132 174.397 10.0565 175.84 10.7916C176.108 10.8335 176.371 10.8986 176.627 10.9862C185.373 14.6616 185.942 15.9804 184.28 27.2013L175.818 23.6772Z" fill="#36297F"/>
<path d="M128.195 96.234C127.998 97.0339 127.342 97.315 126.445 97.2934C125.549 97.2718 125.068 97.1204 125.177 96.2989C125.352 95.1314 126.445 95.2611 127.364 95.1314C128.282 95.0017 128.326 95.3908 128.195 96.234Z" fill="#E1E2E7"/>
<path d="M152.05 94.4822C151.897 95.7145 152.05 97.1847 150.192 97.2063C148.333 97.2279 148.399 95.974 148.42 94.7632C148.442 93.5525 148.289 92.0391 150.06 91.931C151.831 91.8229 151.897 93.2714 152.05 94.4822Z" fill="#F8F9FA"/>
<path d="M249.112 94.4826C248.937 95.8663 248.871 97.2932 247.1 97.1851C245.329 97.077 245.438 95.7798 245.46 94.5907C245.482 93.4016 245.46 91.8882 247.253 91.8882C249.046 91.8882 248.893 93.4664 249.112 94.4826Z" fill="#F8F9FA"/>
<path d="M265.446 94.6554C265.292 95.8445 265.249 97.1849 263.674 97.2281C262.1 97.2714 261.794 95.8877 261.816 94.5905C261.838 93.2933 261.816 91.888 263.653 91.9528C265.489 92.0177 265.292 93.4879 265.446 94.6554Z" fill="#F8F9FA"/>
<path d="M206.408 93.4015H202.91C204.309 91.3692 204.856 91.3476 206.408 93.4015Z" fill="#EEEFF1"/>
<path d="M173.675 95.8452C173.675 97.0559 172.91 97.2289 172.035 97.2721C171.161 97.3153 170.658 97.1207 170.745 96.2992C170.833 95.4776 171.882 95.3479 172.648 95.1533C173.413 94.9587 173.719 95.1966 173.675 95.8452Z" fill="#F6F6F8"/>
<path d="M35.7465 95.7583C35.7465 97.0123 35.003 97.2285 34.1284 97.2718C33.2538 97.315 32.7291 97.142 32.7946 96.3205C32.8602 95.4989 33.9316 95.3476 34.6751 95.1746C35.4185 95.0017 35.7902 95.1314 35.7465 95.7583Z" fill="#F6F6F8"/>
<path d="M289.235 93.4015C289.804 91.953 290.722 91.6071 291.969 92.1043C292.384 92.2773 292.8 92.8827 292.515 93.1205C291.575 93.8988 290.46 93.488 289.235 93.4015Z" fill="#F3F4F6"/>
<path d="M25.404 93.3365C24.3524 93.5644 23.2632 93.5644 22.2116 93.3365C22.2116 92.2123 22.9988 91.8447 23.9609 91.8447C24.923 91.8447 25.5571 92.3204 25.404 93.3365Z" fill="#F3F4F6"/>
<path d="M66.2055 93.5745C66.7959 91.9313 67.6923 91.6935 68.8512 92.0178C69.2885 92.1475 69.7695 92.688 69.5509 92.9691C68.7419 94.115 67.5393 93.2718 66.2055 93.5745Z" fill="#F3F4F6"/>
<path d="M172.538 49.081C171.532 48.9513 170.636 48.2378 169.564 48.5837L163.836 46.0758C163.836 45.3407 163.224 45.2758 162.677 45.1894C162.677 40.6059 162.677 36.0224 162.83 31.439C166.523 32.0894 170.017 33.5687 173.041 35.763C173.21 35.9922 173.301 36.2685 173.301 36.5521C173.301 36.8357 173.21 37.112 173.041 37.3413C173.715 41.0151 173.833 44.7675 173.391 48.4756C173.349 48.6626 173.239 48.8277 173.082 48.9394C172.924 49.0511 172.731 49.1015 172.538 49.081Z" fill="#36297F"/>
<path d="M163.311 22.7476L172.866 26.8338C173.107 28.585 173.675 30.4227 171.882 31.7848C170.368 31.8067 168.867 31.5118 167.476 30.9194C166.086 30.3269 164.837 29.4503 163.814 28.3472C163.13 27.5927 162.711 26.6395 162.62 25.6301C162.53 24.6207 162.772 23.6094 163.311 22.7476Z" fill="#382C7C"/>
<path d="M163.879 28.3474L172.057 31.785C173.806 32.6498 173.325 34.1416 173.15 35.5686C169.652 34.3577 166.24 32.913 162.939 31.2445C162.939 30.1419 162.939 29.0825 162.939 27.915L163.879 28.3474Z" fill="#FCFCFC"/>
<path d="M172.538 49.0803C173.785 46.9183 172.888 44.5617 173.085 42.3132C173.238 40.6268 173.085 38.9188 173.085 37.2325C173.653 37.2325 174.266 37.2325 174.681 36.7568L175.337 37.1892C174.901 37.4944 174.556 37.911 174.341 38.3946C174.125 38.8782 174.046 39.4106 174.113 39.935C174.113 43.2861 174.113 46.6372 174.113 50.01L172.538 49.0803Z" fill="#5B5472"/>
<path d="M158.938 53.1887L158.413 53.6427C156.226 52.4536 153.449 52.3023 151.853 50.0538C153.012 48.1512 155.199 47.8917 156.97 47.0702C158.304 46.4 159.659 45.7946 161.015 45.146V45.8811L152.509 50.0538L158.938 53.1887Z" fill="#564D3D"/>
</svg>
