<svg width="277" height="67" viewBox="0 0 277 67" fill="none" xmlns="http://www.w3.org/2000/svg">
<path d="M94.6341 38.6546H99.9278C99.9278 41.8414 99.003 43.8968 97.1693 44.8529C94.7599 45.7408 92.1887 46.1047 89.6273 45.9204C85.4816 45.9204 82.6753 45.0441 81.304 43.3391C80.0603 41.8732 79.4543 38.9733 79.4543 34.7031C79.4543 30.4328 80.0602 27.5648 81.2083 26.0511C82.5795 24.2665 85.3859 23.3901 89.6273 23.3901C93.8687 23.3901 96.8983 24.2187 98.2217 25.9077C99.5452 27.5966 99.9278 30.6878 99.9278 35.6113H84.7002C84.5491 37.2833 84.7837 38.9676 85.3859 40.5348C85.9918 41.459 87.3631 41.8733 89.6273 41.8733C90.8508 41.9379 92.0768 41.8143 93.2627 41.5068C93.7505 41.2229 94.142 40.7994 94.3864 40.291C94.6308 39.7826 94.7171 39.2126 94.6341 38.6546ZM84.7481 32.2812H94.6341C94.8251 30.8772 94.5327 29.45 93.8049 28.234C92.5274 27.5464 91.0672 27.2735 89.6273 27.4532C87.4109 27.4532 86.0397 27.7719 85.4337 28.4093C84.8224 29.6022 84.5835 30.951 84.7481 32.2812Z" fill="#2B292A"/>
<path d="M119.524 45.6811L119.716 42.3669H119.524C118.424 44.757 116.128 45.9201 112.62 45.9201C109.112 45.9201 106.465 44.757 105.317 42.4625C104.536 40.9966 104.169 38.1445 104.169 34.0017C104.169 30.321 104.616 27.7557 105.54 26.2898C106.736 24.3459 109.128 23.3899 112.62 23.3899C116.112 23.3899 118.376 24.4415 119.301 26.5766H119.524V14.1802H124.818V45.6811H119.524ZM114.231 27.437C112.126 27.437 110.739 28.0266 110.101 29.2216C109.559 30.7539 109.337 32.3805 109.447 34.0017C109.324 35.9524 109.512 37.9101 110.005 39.8016C110.611 41.1719 112.03 41.873 114.231 41.873C116.718 41.873 118.328 41.2197 118.934 39.8972C119.473 37.9814 119.673 35.9862 119.524 34.0017C119.667 32.3325 119.381 30.6545 118.695 29.126C118.009 28.0266 116.495 27.437 114.231 27.437Z" fill="#2B292A"/>
<path d="M149.294 45.6814H144.191V42.2875H144.048C143.043 44.7254 140.699 45.9204 137.064 45.9204C132.089 45.9204 129.602 43.7959 129.602 39.5469V23.6132H134.847V37.5074C134.727 38.6577 134.937 39.8183 135.453 40.8535C135.9 41.5546 137.048 41.8733 138.642 41.8733C139.39 41.9531 140.146 41.8798 140.864 41.6579C141.582 41.436 142.248 41.0701 142.82 40.5826C143.76 39.3677 144.205 37.8418 144.064 36.3124V23.5654H149.357V45.6814H149.294Z" fill="#2B292A"/>
<path d="M168.332 37.2683H173.626C173.626 40.8056 172.797 43.1957 171.186 44.3907C169.847 45.4105 167.312 45.9841 163.549 45.9841C159.403 45.9841 156.687 45.1077 155.401 43.355C154.253 41.8891 153.695 38.9892 153.695 34.7189C153.695 30.4487 154.253 27.6284 155.401 26.1625C156.788 24.3302 159.499 23.4538 163.597 23.4538C166.171 23.2491 168.755 23.7215 171.091 24.8241C172.797 25.9395 173.658 28.1383 173.658 31.4047H168.332C168.332 29.6998 167.965 28.6004 167.168 28.0905C166.041 27.5575 164.791 27.3373 163.549 27.4532C161.428 27.4532 160.089 27.9631 159.546 29.0465C158.987 30.9092 158.781 32.8603 158.94 34.7986C158.805 36.7021 158.994 38.6147 159.499 40.4551C159.993 41.4589 161.332 42.0485 163.549 42.0485C164.906 42.2066 166.279 41.9155 167.455 41.2199C168.163 40.096 168.456 38.7604 168.284 37.4436" fill="#2B292A"/>
<path d="M191.755 45.6813L191.947 42.9247H191.803C191.58 43.5586 191.203 44.1267 190.704 44.5775C190.206 45.0283 189.602 45.3475 188.949 45.506C187.641 45.83 186.294 45.9694 184.947 45.9203C182.819 46.0862 180.689 45.6206 178.824 44.5818C177.405 43.5302 176.671 41.6819 176.671 38.9254C176.671 36.1688 177.405 34.4639 178.92 33.4601C180.773 32.4896 182.861 32.0589 184.947 32.2173C186.231 32.1667 187.516 32.2737 188.774 32.536C189.361 32.6815 189.91 32.9499 190.386 33.3235C190.861 33.697 191.252 34.1672 191.532 34.7029H191.708V31.8508C191.864 30.5617 191.607 29.2562 190.974 28.1223C190.384 27.3894 189.045 27.0229 186.972 27.0229C185.971 26.934 184.963 27.0927 184.038 27.485C183.603 27.7571 183.255 28.1475 183.035 28.6104C182.815 29.0733 182.731 29.5894 182.794 30.0981H177.453C177.453 27.1982 178.425 25.318 180.307 24.346C182.431 23.6085 184.68 23.2998 186.924 23.4378C190.703 23.4378 193.302 23.9317 194.61 24.9037C195.917 25.8757 197.033 28.3932 197.033 31.9305V45.7769H191.835L191.755 45.6813ZM186.844 35.7546C185.679 35.6915 184.511 35.8152 183.384 36.121C182.898 36.3853 182.503 36.7895 182.25 37.2811C181.997 37.7726 181.898 38.3289 181.965 38.8776C181.965 40.3435 182.332 41.3154 183.065 41.7297C184.265 42.2042 185.559 42.395 186.844 42.2874C188.031 42.3644 189.221 42.1907 190.336 41.7775C190.816 41.4737 191.2 41.0398 191.443 40.5264C191.686 40.0129 191.778 39.4411 191.708 38.8776C191.777 38.3295 191.672 37.7736 191.409 37.2878C191.146 36.802 190.738 36.4107 190.241 36.1688C189.143 35.8252 187.992 35.6848 186.844 35.7546Z" fill="#2B292A"/>
<path d="M199.537 27.6603V23.6131H202.295V18.6577H207.589V23.6131H216.056V27.6603H207.541V38.9254C207.485 39.6743 207.577 40.4269 207.812 41.1402C208.099 41.5863 208.785 41.8253 209.789 41.8253C211.129 41.8253 211.958 41.3155 212.229 40.3435C212.411 39.2917 212.475 38.2228 212.42 37.1568H217.108C217.108 40.3435 216.741 42.4946 215.817 43.7374C214.892 44.9802 212.739 45.9044 209.741 45.9044C206.744 45.9044 204.958 45.4901 203.906 44.6137C202.853 43.7374 202.152 41.7616 202.152 39.0051V27.6921H199.537V27.6603Z" fill="#2B292A"/>
<path d="M226.627 18.6576H221.349V14.1802H226.627V18.6576ZM226.627 45.7449H221.349V23.6129H226.627V45.7449Z" fill="#2B292A"/>
<path d="M241.217 23.3901C245.634 23.3901 248.536 24.2187 249.859 25.828C251.023 27.1983 251.613 30.1938 251.613 34.7031C251.613 39.2123 251.023 42.0963 249.859 43.5304C248.695 44.9644 245.634 46.0479 241.217 46.0479C236.8 46.0479 233.898 45.2193 232.575 43.61C231.251 42.0007 230.821 39.2761 230.821 34.7827C230.821 30.2894 231.411 27.3258 232.575 25.9077C233.739 24.4896 236.8 23.4698 241.217 23.4698M241.217 27.517C238.969 27.517 237.534 27.979 236.896 28.9351C236.258 29.8911 236.115 31.7394 236.115 34.7827C235.945 36.7447 236.211 38.72 236.896 40.5667C237.486 41.4908 238.921 41.9529 241.217 41.9529C243.513 41.9529 244.996 41.4908 245.586 40.5667C246.281 38.7225 246.548 36.745 246.367 34.7827C246.552 32.7996 246.285 30.8004 245.586 28.9351C244.948 27.979 243.513 27.517 241.217 27.517Z" fill="#2B292A"/>
<path d="M256.03 23.6132H261.324V26.9274H261.499C261.726 26.2642 262.088 25.6554 262.563 25.1397C263.038 24.6239 263.615 24.2126 264.258 23.9319C265.595 23.4961 266.998 23.2966 268.403 23.3423C271.21 23.3423 273.187 23.9319 274.287 25.1269C275.58 26.843 276.189 28.9786 275.993 31.118V45.6336H270.7V31.7075C270.834 30.5289 270.54 29.3411 269.87 28.3615C268.97 27.646 267.825 27.314 266.681 27.4373C265.884 27.3379 265.074 27.4307 264.319 27.7079C263.565 27.9851 262.888 28.4386 262.344 29.0307C261.611 30.4428 261.296 32.0347 261.435 33.6196V45.7611H256.03V23.6132Z" fill="#2B292A"/>
<path d="M276.041 0.222656H79.821V2.88359H276.041V0.222656Z" fill="#4674B6"/>
<path d="M215.354 64.1167H79.821V66.7776H215.354V64.1167Z" fill="#4674B6"/>
<path d="M276.041 64.1167H233.117V66.7776H276.041V64.1167Z" fill="#4674B6"/>
<path d="M66.2039 0.668457H0.462402V66.3632H66.2039V0.668457Z" fill="white"/>
<path d="M0.462402 66.3791H66.2837V0.668457H0.462402V66.3791ZM61.7871 27.9788C61.604 30.1488 61.1596 32.2887 60.4637 34.3523C58.1517 41.2038 55.4889 45.5059 49.3022 45.5059C48.0008 45.617 46.6973 45.3169 45.5758 44.6479C44.4543 43.9789 43.5714 42.9749 43.0517 41.7774L42.7806 40.9967L42.2704 41.65C41.3154 42.8519 40.1042 43.8259 38.7251 44.5012C37.346 45.1765 35.8335 45.536 34.2979 45.5537C33.2606 45.6138 32.2232 45.437 31.2645 45.0367C30.3058 44.6364 29.451 44.0231 28.7649 43.2433L28.446 42.845L28.0793 43.2433C27.2468 44.0433 26.2571 44.6617 25.1729 45.0594C24.0887 45.4571 22.9337 45.6254 21.781 45.5537C20.8364 45.5898 19.8947 45.4284 19.0161 45.08C18.1375 44.7315 17.3413 44.2037 16.6786 43.5302L16.3437 43.1637L16.0248 43.4823C15.1994 44.204 14.2337 44.7477 13.1884 45.0794C12.1431 45.4112 11.0406 45.5238 9.94974 45.4103C6.76073 45.3147 4.79947 43.578 4.75163 40.6302C4.65596 36.121 8.99302 26.7041 10.7789 23.852C11.2488 22.9619 11.9603 22.2222 12.8318 21.7177C13.7033 21.2132 14.6994 20.9645 15.7059 20.9999C16.2471 20.9435 16.794 20.9963 17.3144 21.155C17.8348 21.3138 18.318 21.5753 18.7354 21.924C19.2935 22.4658 19.3892 22.9757 19.437 24.1229V25.6047L20.2183 24.3141C22.0998 21.223 25.2729 20.8087 28.3982 20.8087C29.2992 20.7399 30.2037 20.8877 31.0359 21.2398C31.8682 21.5918 32.6039 22.1379 33.1817 22.8323L33.4528 23.2943L33.8674 22.9279C35.6778 21.4939 37.9361 20.7436 40.2454 20.8087C41.3209 20.7096 42.4053 20.8386 43.4274 21.1873C44.4496 21.5361 45.3866 22.0966 46.1769 22.8323C46.4718 23.1409 46.7046 23.5033 46.8626 23.8998L47.1814 24.5372L47.6439 23.9954C48.5046 22.9623 49.5894 22.1385 50.816 21.5863C52.0426 21.0342 53.3788 20.7683 54.7235 20.8087C55.6862 20.7296 56.6548 20.8532 57.5666 21.1716C58.4785 21.49 59.3134 21.996 60.0173 22.657C60.63 23.3993 61.087 24.2573 61.3609 25.1798C61.6349 26.1023 61.7202 27.0705 61.6118 28.0266" fill="#FAF048"/>
<path d="M0.462402 66.3791H66.2837V0.668457H0.462402V66.3791ZM63.6686 30.5123C63.0915 33.4789 62.1656 36.367 60.9102 39.1165C58.6141 43.8966 55.5367 47.5295 49.6051 47.5295C48.2543 47.6142 46.9017 47.3931 45.6483 46.8827C44.3949 46.3723 43.2729 45.5858 42.3661 44.5818C40.1658 46.5307 37.3337 47.6175 34.3935 47.6411C32.2834 47.7138 30.2139 47.0489 28.5417 45.7609C26.6043 47.0369 24.3239 47.6927 22.0042 47.6411C20.031 47.6826 18.0912 47.1272 16.4393 46.0477C14.5313 47.2295 12.3015 47.7866 10.0613 47.6411C9.13782 47.6948 8.21296 47.5618 7.34217 47.2498C6.47138 46.9378 5.67261 46.4534 4.99367 45.8255C4.31473 45.1977 3.76963 44.4393 3.39103 43.5958C3.01244 42.7524 2.80812 41.8413 2.79037 40.917C2.71064 35.7226 7.07959 26.2102 9.1684 22.9438C9.82386 21.7574 10.7806 20.7645 11.9423 20.0651C13.104 19.3658 14.4296 18.9848 15.7856 18.9604C18.9746 18.9604 20.0589 19.8367 20.5691 20.9839C22.8765 19.3211 25.7093 18.5512 28.5417 18.817C30.5068 18.7234 32.439 19.3462 33.9789 20.5697C35.9546 19.413 38.2111 18.8231 40.5005 18.8648C41.8229 18.7412 43.1566 18.8941 44.4167 19.3138C45.6767 19.7335 46.8355 20.4109 47.8193 21.3026C49.8559 19.6885 52.3961 18.8424 54.9946 18.9126C56.3982 18.7851 57.8115 19.0098 59.1062 19.5663C60.401 20.1227 61.5362 20.9934 62.409 22.0993C64.3862 24.808 64.0035 27.5646 63.6846 30.5123" fill="#AE272D"/>
<path d="M0 66.7619H66.6185V0.222656H0V66.7619ZM65.6937 65.8377H0.908881V1.13088H65.6778L65.6937 65.8377Z" fill="#2B292A"/>
<path d="M63.3497 20.2193V19.7573H63.6686C63.9078 19.7573 64.0035 19.8529 64.0035 19.9803C64.0035 20.1078 63.9078 20.2193 63.6686 20.2193H63.3497ZM64.4659 21.1276L64.2745 20.8089C64.0832 20.538 64.0513 20.4902 63.9078 20.4424C64.028 20.4349 64.1413 20.3838 64.2264 20.2987C64.3116 20.2136 64.3627 20.1004 64.3702 19.9803C64.3706 19.9154 64.3572 19.8512 64.331 19.7917C64.3049 19.7323 64.2665 19.6791 64.2183 19.6355C64.1702 19.5919 64.1134 19.5589 64.0517 19.5387C63.9899 19.5185 63.9246 19.5115 63.86 19.5183H63.0946V21.1116H63.4135V20.554C63.557 20.554 63.6049 20.554 63.6846 20.6496C63.7869 20.7368 63.8686 20.8456 63.9237 20.9682L64.0672 21.2391H64.4818L64.4659 21.1276ZM63.6367 18.9606C63.9751 18.9606 64.2995 19.0949 64.5388 19.3339C64.778 19.573 64.9124 19.8972 64.9124 20.2353C64.9155 20.4919 64.842 20.7436 64.7013 20.9582C64.5606 21.1729 64.3591 21.3408 64.1225 21.4405C63.8858 21.5401 63.6248 21.567 63.3728 21.5177C63.1208 21.4684 62.8892 21.3452 62.7076 21.1637C62.526 20.9823 62.4027 20.7509 62.3534 20.499C62.3041 20.2472 62.331 19.9864 62.4307 19.7499C62.5305 19.5134 62.6984 19.312 62.9133 19.1714C63.1281 19.0308 63.38 18.9574 63.6367 18.9606ZM63.6367 18.626C63.2139 18.626 62.8083 18.7938 62.5093 19.0927C62.2103 19.3915 62.0422 19.7968 62.0422 20.2193C62.0422 20.6419 62.2103 21.0472 62.5093 21.346C62.8083 21.6448 63.2139 21.8127 63.6367 21.8127C64.0596 21.8127 64.4652 21.6448 64.7643 21.346C65.0633 21.0472 65.2313 20.6419 65.2313 20.2193C65.2313 19.7968 65.0633 19.3915 64.7643 19.0927C64.4652 18.7938 64.0596 18.626 63.6367 18.626Z" fill="#2B292A"/>
<path d="M54.9308 20.4425C53.53 20.3824 52.1336 20.6376 50.8448 21.1892C49.5559 21.7408 48.4075 22.5747 47.4844 23.6292C47.2988 23.201 47.0337 22.8117 46.7031 22.482C45.859 21.6805 44.8534 21.0682 43.7535 20.6863C42.6536 20.3044 41.4847 20.1615 40.3251 20.2672C37.8839 20.1952 35.4973 20.9977 33.5963 22.5298C32.9803 21.7452 32.1775 21.1271 31.2613 20.7319C30.345 20.3367 29.3442 20.1769 28.3503 20.2672C25.1613 20.2672 21.8288 20.7293 19.756 23.9957C19.802 23.5463 19.7518 23.0923 19.6089 22.6638C19.4659 22.2353 19.2334 21.842 18.9268 21.5101C17.9883 20.7293 16.7788 20.3513 15.5624 20.4584C14.4812 20.4288 13.4132 20.7009 12.4781 21.2441C11.543 21.7873 10.7779 22.5801 10.2686 23.5336C8.48278 26.4336 4.06602 35.946 4.16169 40.5986C4.16169 43.5783 6.21858 45.7452 9.82217 45.793C10.9693 45.8836 12.1231 45.7473 13.2176 45.3919C14.312 45.0365 15.3255 44.4689 16.2002 43.7217C16.902 44.4416 17.747 45.0065 18.6809 45.3797C19.6147 45.753 20.6165 45.9264 21.6215 45.8886C22.8337 45.9419 24.0443 45.7538 25.1831 45.3353C26.3218 44.9168 27.3659 44.2762 28.2547 43.4508C28.9721 44.3161 29.8822 45.0016 30.9121 45.4526C31.9421 45.9036 33.0633 46.1075 34.1862 46.048C35.782 46.0424 37.3558 45.6753 38.7892 44.9743C40.2225 44.2733 41.4782 43.2566 42.4617 42.0008C43.0017 43.3065 43.947 44.4045 45.1584 45.1331C46.3697 45.8617 47.7831 46.1824 49.1906 46.048C55.5686 46.048 58.4706 41.6343 60.8304 34.6076C61.55 32.5504 61.995 30.4075 62.1539 28.2341C62.4728 24.4259 60.9102 20.554 54.9308 20.554M12.0704 38.0811C15.387 37.4916 16.264 38.7344 16.1205 39.8338C15.8016 43.1958 12.7561 43.9288 10.0933 43.881C8.1639 43.881 6.40995 42.9568 6.36211 40.6942C6.28239 36.7905 10.2846 27.7242 12.1661 24.7605C12.5033 24.0948 13.0258 23.5406 13.6708 23.1647C14.3157 22.7887 15.0557 22.607 15.8016 22.6414C17.3961 22.6414 17.7787 23.4699 17.7787 24.4419C17.715 26.9275 13.4417 34.8944 12.0704 38.0811ZM22.9131 34.8944C22.5353 35.9396 22.2107 37.0032 21.9404 38.0811C23.0176 37.771 24.1366 37.6313 25.257 37.6668C26.8515 37.6668 27.888 38.352 27.888 39.6904C27.888 42.8772 24.3482 43.8332 21.8607 43.8332C19.3733 43.8332 16.8539 42.3354 16.8539 39.3399C16.8539 35.8982 18.7514 30.6082 20.4894 27.1187C22.658 22.8326 24.8584 22.243 28.6852 22.243C30.2797 22.243 32.2729 22.976 32.2729 24.5375C32.2729 26.7363 30.4391 27.5649 28.5895 27.7242C27.6866 27.7716 26.7818 27.7716 25.8789 27.7242C25.3823 28.5427 24.9658 29.4071 24.6352 30.3055C28.0315 29.8434 29.5143 30.5763 28.9084 32.5521C28.1271 35.3087 25.831 35.4521 22.9769 34.9422M39.767 26.6726C39.3659 26.6997 38.9772 26.8223 38.6332 27.0302C38.2893 27.2381 38.0001 27.5252 37.7898 27.8676C36.2117 30.7706 35.0522 33.8819 34.3457 37.1092C34.1065 38.7025 34.8081 38.9893 35.5416 38.9893C36.7375 38.9893 38.0609 37.7465 38.4755 35.6751C38.4755 35.6751 36.2272 35.6751 36.881 33.6037C37.5347 31.5324 38.6349 31.2615 40.5164 31.1659C44.2476 31.0384 43.8808 33.7949 43.6098 35.2609C42.6371 40.041 39.2408 43.9129 34.4095 43.9129C33.6997 43.9994 32.9795 43.9258 32.3019 43.6975C31.6243 43.4692 31.0066 43.092 30.4941 42.5937C29.9817 42.0953 29.5875 41.4885 29.3407 40.8179C29.0939 40.1473 29.0006 39.4299 29.0679 38.7185C29.3146 35.8282 30.0308 32.9974 31.1886 30.3373C33.2136 25.6528 35.2705 22.3705 40.6599 22.3705C43.8489 22.3705 46.4161 23.5177 46.0494 26.561C46.0557 27.4931 45.7063 28.3926 45.0724 29.0764C44.4385 29.7602 43.5677 30.1769 42.6372 30.2417C42.095 30.2417 39.783 30.2417 40.5164 28.0269C40.8034 27.2462 40.8832 26.6566 39.783 26.6566M59.9056 30.6082C59.2568 33.6231 58.183 36.5308 56.7166 39.2443C54.4524 43.2914 51.6939 43.8969 49.3022 43.8491C46.9104 43.8013 44.1997 42.925 44.1997 39.2443C44.4168 36.2054 45.1333 33.2231 46.3205 30.417C48.0106 25.9556 49.7167 22.4501 55.2018 22.4501C61.5799 22.4501 60.3999 28.2022 59.9854 30.6401M55.4251 27.8835C54.6587 31.3394 53.4866 34.6928 51.9331 37.874C51.8029 38.2003 51.5852 38.4845 51.3039 38.6953C51.0226 38.9062 50.6886 39.0354 50.3386 39.069C49.637 39.069 49.3659 38.5591 49.3181 38.0015C50.0599 34.3481 51.3161 30.8182 53.0493 27.5171C53.1983 27.2647 53.4141 27.0583 53.6729 26.9206C53.9317 26.7828 54.2235 26.7191 54.5162 26.7363C55.2975 26.7363 55.3932 27.3418 55.3932 27.8517" fill="#2B292A"/>
</svg>
