<svg width="1440" height="290" viewBox="0 0 1440 290" fill="none" xmlns="http://www.w3.org/2000/svg">
<path d="M-411 0V290H1724.01V0H-411ZM-372.855 272.068C-372.871 273.435 -373.422 274.743 -374.389 275.71C-375.356 276.677 -376.664 277.228 -378.031 277.244H-397.566C-398.934 277.228 -400.241 276.677 -401.209 275.71C-402.176 274.743 -402.726 273.435 -402.742 272.068V257.648C-402.726 256.286 -402.174 254.985 -401.205 254.027C-400.236 253.07 -398.928 252.533 -397.566 252.533H-378.031C-376.669 252.533 -375.362 253.07 -374.393 254.027C-373.424 254.985 -372.871 256.286 -372.855 257.648V272.068ZM-372.855 31.3663C-372.871 32.7342 -373.422 34.0416 -374.389 35.0089C-375.356 35.9762 -376.664 36.5267 -378.031 36.5427H-397.566C-398.934 36.5267 -400.241 35.9762 -401.209 35.0089C-402.176 34.0416 -402.726 32.7342 -402.742 31.3663V16.9465C-402.726 15.5843 -402.174 14.2835 -401.205 13.326C-400.236 12.3685 -398.928 11.8316 -397.566 11.8317H-378.031C-376.669 11.8316 -375.362 12.3685 -374.393 13.326C-373.424 14.2835 -372.871 15.5843 -372.855 16.9465V31.3663ZM-327.315 272.068C-327.315 273.43 -327.852 274.737 -328.81 275.706C-329.767 276.675 -331.068 277.228 -332.43 277.244H-352.026C-353.389 277.228 -354.689 276.675 -355.647 275.706C-356.604 274.737 -357.141 273.43 -357.141 272.068V257.648C-357.141 256.291 -356.602 254.99 -355.643 254.031C-354.684 253.072 -353.383 252.533 -352.026 252.533H-332.43C-331.074 252.533 -329.773 253.072 -328.813 254.031C-327.854 254.99 -327.315 256.291 -327.315 257.648V272.068ZM-327.315 31.3663C-327.315 32.7286 -327.852 34.036 -328.81 35.005C-329.767 35.974 -331.068 36.5265 -332.43 36.5427H-352.026C-353.389 36.5265 -354.689 35.974 -355.647 35.005C-356.604 34.036 -357.141 32.7286 -357.141 31.3663V16.9465C-357.141 15.5899 -356.602 14.289 -355.643 13.3298C-354.684 12.3706 -353.383 11.8317 -352.026 11.8317H-332.43C-331.074 11.8317 -329.773 12.3706 -328.813 13.3298C-327.854 14.289 -327.315 15.5899 -327.315 16.9465V31.3663ZM-281.776 272.068C-281.776 273.43 -282.312 274.737 -283.27 275.706C-284.227 276.675 -285.528 277.228 -286.89 277.244H-306.487C-307.849 277.228 -309.15 276.675 -310.107 275.706C-311.065 274.737 -311.601 273.43 -311.601 272.068V257.648C-311.601 256.291 -311.062 254.99 -310.103 254.031C-309.144 253.072 -307.843 252.533 -306.487 252.533H-286.89C-285.534 252.533 -284.233 253.072 -283.274 254.031C-282.314 254.99 -281.776 256.291 -281.776 257.648V272.068ZM-281.776 31.3663C-281.776 32.7286 -282.312 34.036 -283.27 35.005C-284.227 35.974 -285.528 36.5265 -286.89 36.5427H-306.487C-307.849 36.5265 -309.15 35.974 -310.107 35.005C-311.065 34.036 -311.601 32.7286 -311.601 31.3663V16.9465C-311.601 15.5899 -311.062 14.289 -310.103 13.3298C-309.144 12.3706 -307.843 11.8317 -306.487 11.8317H-286.89C-285.534 11.8317 -284.233 12.3706 -283.274 13.3298C-282.314 14.289 -281.776 15.5899 -281.776 16.9465V31.3663ZM-236.174 272.068C-236.174 273.43 -236.711 274.737 -237.669 275.706C-238.626 276.675 -239.927 277.228 -241.289 277.244H-260.885C-262.247 277.228 -263.548 276.675 -264.506 275.706C-265.463 274.737 -266 273.43 -266 272.068V257.648C-266 256.291 -265.461 254.99 -264.502 254.031C-263.543 253.072 -262.242 252.533 -260.885 252.533H-241.289C-239.932 252.533 -238.632 253.072 -237.672 254.031C-236.713 254.99 -236.174 256.291 -236.174 257.648V272.068ZM-236.174 31.3663C-236.174 32.7286 -236.711 34.036 -237.669 35.005C-238.626 35.974 -239.927 36.5265 -241.289 36.5427H-260.885C-262.247 36.5265 -263.548 35.974 -264.506 35.005C-265.463 34.036 -266 32.7286 -266 31.3663V16.9465C-266 15.5899 -265.461 14.289 -264.502 13.3298C-263.543 12.3706 -262.242 11.8317 -260.885 11.8317H-241.289C-239.932 11.8317 -238.632 12.3706 -237.672 13.3298C-236.713 14.289 -236.174 15.5899 -236.174 16.9465V31.3663ZM-190.635 272.068C-190.634 273.43 -191.171 274.737 -192.129 275.706C-193.086 276.675 -194.387 277.228 -195.749 277.244H-215.346C-216.708 277.228 -218.009 276.675 -218.966 275.706C-219.923 274.737 -220.46 273.43 -220.46 272.068V257.648C-220.46 256.291 -219.921 254.99 -218.962 254.031C-218.003 253.072 -216.702 252.533 -215.346 252.533H-195.749C-194.393 252.533 -193.092 253.072 -192.133 254.031C-191.173 254.99 -190.635 256.291 -190.635 257.648V272.068ZM-190.635 31.1815C-190.634 32.5437 -191.171 33.8511 -192.129 34.8201C-193.086 35.7891 -194.387 36.3416 -195.749 36.3578H-215.346C-216.708 36.3416 -218.009 35.7891 -218.966 34.8201C-219.923 33.8511 -220.46 32.5437 -220.46 31.1815V16.9465C-220.46 15.5899 -219.921 14.289 -218.962 13.3298C-218.003 12.3706 -216.702 11.8317 -215.346 11.8317H-195.749C-194.393 11.8317 -193.092 12.3706 -192.133 13.3298C-191.173 14.289 -190.635 15.5899 -190.635 16.9465V31.1815ZM-145.033 272.068C-145.049 273.435 -145.6 274.743 -146.567 275.71C-147.534 276.677 -148.842 277.228 -150.21 277.244H-169.744C-171.112 277.228 -172.419 276.677 -173.387 275.71C-174.354 274.743 -174.905 273.435 -174.921 272.068V257.648C-174.904 256.286 -174.352 254.985 -173.383 254.027C-172.414 253.07 -171.106 252.533 -169.744 252.533H-150.21C-148.847 252.533 -147.54 253.07 -146.571 254.027C-145.602 254.985 -145.049 256.286 -145.033 257.648V272.068ZM-145.033 31.1815C-145.049 32.5494 -145.6 33.8567 -146.567 34.824C-147.534 35.7913 -148.842 36.3419 -150.21 36.3578H-169.744C-171.112 36.3419 -172.419 35.7913 -173.387 34.824C-174.354 33.8567 -174.905 32.5494 -174.921 31.1815V16.9465C-174.904 15.5843 -174.352 14.2835 -173.383 13.326C-172.414 12.3685 -171.106 11.8316 -169.744 11.8317H-150.21C-148.847 11.8316 -147.54 12.3685 -146.571 13.326C-145.602 14.2835 -145.049 15.5843 -145.033 16.9465V31.1815ZM-99.4934 271.883C-99.4933 273.245 -100.03 274.552 -100.988 275.521C-101.945 276.49 -103.246 277.043 -104.608 277.059H-124.204C-125.567 277.043 -126.867 276.49 -127.825 275.521C-128.782 274.552 -129.319 273.245 -129.319 271.883V257.648C-129.319 256.291 -128.78 254.99 -127.821 254.031C-126.862 253.072 -125.561 252.533 -124.204 252.533H-104.608C-103.252 252.533 -101.951 253.072 -100.991 254.031C-100.032 254.99 -99.4934 256.291 -99.4934 257.648V271.883ZM-99.4934 31.1815C-99.4933 32.5437 -100.03 33.8511 -100.988 34.8201C-101.945 35.7891 -103.246 36.3416 -104.608 36.3578H-124.204C-125.567 36.3416 -126.867 35.7891 -127.825 34.8201C-128.782 33.8511 -129.319 32.5437 -129.319 31.1815V16.9465C-129.319 15.5899 -128.78 14.289 -127.821 13.3298C-126.862 12.3706 -125.561 11.8317 -124.204 11.8317H-104.608C-103.252 11.8317 -101.951 12.3706 -100.991 13.3298C-100.032 14.289 -99.4934 15.5899 -99.4934 16.9465V31.1815ZM-53.9537 271.883C-53.9536 273.245 -54.4905 274.552 -55.4479 275.521C-56.4054 276.49 -57.7063 277.043 -59.0684 277.059H-78.6647C-80.0268 277.043 -81.3277 276.49 -82.2852 275.521C-83.2426 274.552 -83.7795 273.245 -83.7794 271.883V257.648C-83.7794 256.291 -83.2406 254.99 -82.2814 254.031C-81.3221 253.072 -80.0212 252.533 -78.6647 252.533H-59.0684C-57.7119 252.533 -56.4109 253.072 -55.4518 254.031C-54.4926 254.99 -53.9537 256.291 -53.9537 257.648V271.883ZM-53.9537 31.1815C-53.9536 32.5437 -54.4905 33.8511 -55.4479 34.8201C-56.4054 35.7891 -57.7063 36.3416 -59.0684 36.3578H-78.6647C-80.0268 36.3416 -81.3277 35.7891 -82.2852 34.8201C-83.2426 33.8511 -83.7795 32.5437 -83.7794 31.1815V16.9465C-83.7794 15.5899 -83.2406 14.289 -82.2814 13.3298C-81.3221 12.3706 -80.0212 11.8317 -78.6647 11.8317H-59.0684C-57.7119 11.8317 -56.4109 12.3706 -55.4518 13.3298C-54.4926 14.289 -53.9537 15.5899 -53.9537 16.9465V31.1815ZM-8.35236 271.883C-8.36835 273.251 -8.91885 274.558 -9.88617 275.525C-10.8535 276.493 -12.1608 277.043 -13.5287 277.059H-33.0633C-34.4312 277.043 -35.7386 276.493 -36.7059 275.525C-37.6732 274.558 -38.2237 273.251 -38.2397 271.883V257.648C-38.2235 256.286 -37.671 254.985 -36.702 254.027C-35.733 253.07 -34.4256 252.533 -33.0633 252.533H-13.7752C-12.4129 252.533 -11.1056 253.07 -10.1366 254.027C-9.16754 254.985 -8.61502 256.286 -8.59879 257.648L-8.35236 271.883ZM-8.35236 31.1815C-8.36835 32.5494 -8.91885 33.8567 -9.88617 34.824C-10.8535 35.7913 -12.1608 36.3419 -13.5287 36.3578H-33.0633C-33.7563 36.3742 -34.4457 36.2528 -35.0915 36.0008C-35.7372 35.7487 -36.3265 35.371 -36.8252 34.8895C-37.3239 34.408 -37.722 33.8324 -37.9966 33.1958C-38.2711 32.5593 -38.4166 31.8746 -38.4246 31.1815V16.9465C-38.4084 15.5843 -37.8558 14.2835 -36.8868 13.326C-35.9178 12.3685 -34.6104 11.8316 -33.2482 11.8317H-13.7752C-12.4129 11.8316 -11.1056 12.3685 -10.1366 13.326C-9.16754 14.2835 -8.61502 15.5843 -8.59879 16.9465L-8.35236 31.1815ZM37.1874 271.883C37.1875 273.245 36.6506 274.552 35.6931 275.521C34.7357 276.49 33.4348 277.043 32.0726 277.059H12.4764C11.1143 277.043 9.81342 276.49 8.85593 275.521C7.89847 274.552 7.36157 273.245 7.36166 271.883V257.648C7.36166 256.291 7.90054 254.99 8.85974 254.031C9.81894 253.072 11.1199 252.533 12.4764 252.533H32.0726C33.4291 252.533 34.7301 253.072 35.6893 254.031C36.6485 254.99 37.1874 256.291 37.1874 257.648V271.883ZM37.1874 31.1815C37.1875 32.5437 36.6506 33.8511 35.6931 34.8201C34.7357 35.7891 33.4348 36.3416 32.0726 36.3578H12.4764C11.1143 36.3416 9.81342 35.7891 8.85593 34.8201C7.89847 33.8511 7.36157 32.5437 7.36166 31.1815V16.9465C7.36166 15.5899 7.90054 14.289 8.85974 13.3298C9.81894 12.3706 11.1199 11.8317 12.4764 11.8317H32.0726C33.4291 11.8317 34.7301 12.3706 35.6893 13.3298C36.6485 14.289 37.1874 15.5899 37.1874 16.9465V31.1815ZM82.7271 271.883C82.7272 273.245 82.1904 274.552 81.2329 275.521C80.2754 276.49 78.9745 277.043 77.6124 277.059H58.0161C56.654 277.043 55.3531 276.49 54.3957 275.521C53.4382 274.552 52.9013 273.245 52.9014 271.883V257.648C52.9014 256.291 53.4403 254.99 54.3995 254.031C55.3587 253.072 56.6596 252.533 58.0161 252.533H77.6124C78.9689 252.533 80.2698 253.072 81.229 254.031C82.1882 254.99 82.7271 256.291 82.7271 257.648V271.883ZM82.7271 31.1815C82.7272 32.5437 82.1904 33.8511 81.2329 34.8201C80.2754 35.7891 78.9745 36.3416 77.6124 36.3578H58.0161C56.654 36.3416 55.3531 35.7891 54.3957 34.8201C53.4382 33.8511 52.9013 32.5437 52.9014 31.1815V16.9465C52.9014 15.5899 53.4403 14.289 54.3995 13.3298C55.3587 12.3706 56.6596 11.8317 58.0161 11.8317H77.6124C78.9689 11.8317 80.2698 12.3706 81.229 13.3298C82.1882 14.289 82.7271 15.5899 82.7271 16.9465V31.1815ZM128.329 271.883C128.329 272.562 128.195 273.236 127.934 273.864C127.674 274.492 127.293 275.062 126.812 275.543C126.332 276.024 125.761 276.405 125.133 276.665C124.505 276.925 123.832 277.059 123.152 277.059H103.617C102.25 277.043 100.942 276.493 99.9749 275.525C99.0076 274.558 98.4571 273.251 98.4411 271.883V257.648C98.4573 256.286 99.0099 254.985 99.9789 254.027C100.948 253.07 102.255 252.533 103.617 252.533H123.152C123.829 252.525 124.501 252.651 125.128 252.904C125.756 253.158 126.327 253.533 126.809 254.009C127.29 254.485 127.672 255.051 127.933 255.676C128.194 256.301 128.329 256.971 128.329 257.648V271.883ZM128.329 31.1815C128.329 31.8612 128.195 32.5344 127.934 33.1624C127.674 33.7904 127.293 34.3611 126.812 34.8417C126.332 35.3224 125.761 35.7037 125.133 35.9638C124.505 36.224 123.832 36.3578 123.152 36.3578H103.617C102.25 36.3419 100.942 35.7913 99.9749 34.824C99.0076 33.8567 98.4571 32.5494 98.4411 31.1815V16.9465C98.4573 15.5843 99.0099 14.2835 99.9789 13.326C100.948 12.3685 102.255 11.8316 103.617 11.8317H123.152C123.829 11.8236 124.501 11.9498 125.128 12.2032C125.756 12.4566 126.327 12.8321 126.809 13.3078C127.29 13.7836 127.672 14.3502 127.933 14.9748C128.194 15.5994 128.329 16.2696 128.329 16.9465V31.1815ZM173.868 271.883C173.868 273.245 173.331 274.552 172.374 275.521C171.417 276.49 170.116 277.043 168.754 277.059H149.157C147.795 277.043 146.494 276.49 145.537 275.521C144.579 274.552 144.042 273.245 144.042 271.883V257.648C144.042 256.291 144.581 254.99 145.541 254.031C146.5 253.072 147.801 252.533 149.157 252.533H168.754C170.11 252.533 171.411 253.072 172.37 254.031C173.329 254.99 173.868 256.291 173.868 257.648V271.883ZM173.868 31.1815C173.868 32.5437 173.331 33.8511 172.374 34.8201C171.417 35.7891 170.116 36.3416 168.754 36.3578H149.157C147.795 36.3416 146.494 35.7891 145.537 34.8201C144.579 33.8511 144.042 32.5437 144.042 31.1815V16.9465C144.042 15.5899 144.581 14.289 145.541 13.3298C146.5 12.3706 147.801 11.8317 149.157 11.8317H168.754C170.11 11.8317 171.411 12.3706 172.37 13.3298C173.329 14.289 173.868 15.5899 173.868 16.9465V31.1815ZM219.47 271.883C219.454 273.251 218.903 274.558 217.936 275.525C216.968 276.493 215.661 277.043 214.293 277.059H194.697C193.335 277.043 192.034 276.49 191.076 275.521C190.119 274.552 189.582 273.245 189.582 271.883V257.648C189.582 256.291 190.121 254.99 191.08 254.031C192.039 253.072 193.34 252.533 194.697 252.533H214.232C215.594 252.533 216.901 253.07 217.87 254.027C218.839 254.985 219.392 256.286 219.408 257.648L219.47 271.883ZM219.47 31.1815C219.454 32.5494 218.903 33.8567 217.936 34.824C216.968 35.7913 215.661 36.3419 214.293 36.3578H194.697C193.335 36.3416 192.034 35.7891 191.076 34.8201C190.119 33.8511 189.582 32.5437 189.582 31.1815V16.9465C189.582 15.5899 190.121 14.289 191.08 13.3298C192.039 12.3706 193.34 11.8317 194.697 11.8317H214.232C215.594 11.8316 216.901 12.3685 217.87 13.326C218.839 14.2835 219.392 15.5843 219.408 16.9465L219.47 31.1815ZM265.009 271.883C265.009 273.245 264.473 274.552 263.515 275.521C262.558 276.49 261.257 277.043 259.895 277.059H240.298C238.936 277.043 237.635 276.49 236.678 275.521C235.72 274.552 235.183 273.245 235.184 271.883V257.648C235.184 256.291 235.722 254.99 236.682 254.031C237.641 253.072 238.942 252.533 240.298 252.533H259.895C261.251 252.533 262.552 253.072 263.511 254.031C264.47 254.99 265.009 256.291 265.009 257.648V271.883ZM265.009 31.1815C265.009 32.5437 264.473 33.8511 263.515 34.8201C262.558 35.7891 261.257 36.3416 259.895 36.3578H240.298C238.936 36.3416 237.635 35.7891 236.678 34.8201C235.72 33.8511 235.183 32.5437 235.184 31.1815V16.9465C235.184 15.5899 235.722 14.289 236.682 13.3298C237.641 12.3706 238.942 11.8317 240.298 11.8317H259.895C261.251 11.8317 262.552 12.3706 263.511 13.3298C264.47 14.289 265.009 15.5899 265.009 16.9465V31.1815ZM310.549 271.883C310.549 273.245 310.012 274.552 309.055 275.521C308.097 276.49 306.797 277.043 305.434 277.059H285.838C284.476 277.043 283.175 276.49 282.218 275.521C281.26 274.552 280.723 273.245 280.723 271.883V257.648C280.723 256.291 281.262 254.99 282.221 254.031C283.181 253.072 284.482 252.533 285.838 252.533H305.434C306.791 252.533 308.092 253.072 309.051 254.031C310.01 254.99 310.549 256.291 310.549 257.648V271.883ZM310.549 31.1815C310.549 32.5437 310.012 33.8511 309.055 34.8201C308.097 35.7891 306.797 36.3416 305.434 36.3578H285.838C284.476 36.3416 283.175 35.7891 282.218 34.8201C281.26 33.8511 280.723 32.5437 280.723 31.1815V16.9465C280.723 15.5899 281.262 14.289 282.221 13.3298C283.181 12.3706 284.482 11.8317 285.838 11.8317H305.434C306.791 11.8317 308.092 12.3706 309.051 13.3298C310.01 14.289 310.549 15.5899 310.549 16.9465V31.1815ZM355.966 272.068C355.95 273.435 355.399 274.743 354.432 275.71C353.464 276.677 352.157 277.228 350.789 277.244H331.316C329.948 277.228 328.641 276.677 327.674 275.71C326.706 274.743 326.156 273.435 326.14 272.068V257.648C326.156 256.286 326.709 254.985 327.678 254.027C328.647 253.07 329.954 252.533 331.316 252.533H350.851C352.213 252.533 353.52 253.07 354.489 254.027C355.458 254.985 356.011 256.286 356.027 257.648L355.966 272.068ZM355.966 31.1815C355.95 32.5494 355.399 33.8567 354.432 34.824C353.464 35.7913 352.157 36.3419 350.789 36.3578H331.316C329.948 36.3419 328.641 35.7913 327.674 34.824C326.706 33.8567 326.156 32.5494 326.14 31.1815V16.9465C326.156 15.5843 326.709 14.2835 327.678 13.326C328.647 12.3685 329.954 11.8316 331.316 11.8317H350.851C352.213 11.8316 353.52 12.3685 354.489 13.326C355.458 14.2835 356.011 15.5843 356.027 16.9465L355.966 31.1815ZM401.505 271.883C401.505 273.245 400.969 274.552 400.011 275.521C399.054 276.49 397.753 277.043 396.391 277.059H376.979C375.617 277.043 374.316 276.49 373.359 275.521C372.401 274.552 371.864 273.245 371.864 271.883V257.648C371.864 256.291 372.403 254.99 373.362 254.031C374.322 253.072 375.623 252.533 376.979 252.533H396.575C397.932 252.533 399.233 253.072 400.192 254.031C401.151 254.99 401.69 256.291 401.69 257.648L401.505 271.883ZM401.505 31.1815C401.505 32.5437 400.969 33.8511 400.011 34.8201C399.054 35.7891 397.753 36.3416 396.391 36.3578H376.979C375.617 36.3416 374.316 35.7891 373.359 34.8201C372.401 33.8511 371.864 32.5437 371.864 31.1815V16.9465C371.864 15.5899 372.403 14.289 373.362 13.3298C374.322 12.3706 375.623 11.8317 376.979 11.8317H396.575C397.932 11.8317 399.233 12.3706 400.192 13.3298C401.151 14.289 401.69 15.5899 401.69 16.9465L401.505 31.1815ZM447.045 271.883C447.045 273.245 446.508 274.552 445.551 275.521C444.593 276.49 443.292 277.043 441.93 277.059H422.519C421.157 277.043 419.856 276.49 418.898 275.521C417.941 274.552 417.404 273.245 417.404 271.883V257.648C417.404 256.291 417.943 254.99 418.902 254.031C419.861 253.072 421.162 252.533 422.519 252.533H442.238C443.595 252.533 444.896 253.072 445.855 254.031C446.814 254.99 447.353 256.291 447.353 257.648L447.045 271.883ZM447.045 31.1815C447.045 32.5437 446.508 33.8511 445.551 34.8201C444.593 35.7891 443.292 36.3416 441.93 36.3578H422.519C421.189 36.2945 419.935 35.7212 419.017 34.7573C418.099 33.7933 417.587 32.5127 417.589 31.1815V16.9465C417.589 15.5899 418.128 14.289 419.087 13.3298C420.046 12.3706 421.347 11.8317 422.704 11.8317H442.238C443.595 11.8317 444.896 12.3706 445.855 13.3298C446.814 14.289 447.353 15.5899 447.353 16.9465L447.045 31.1815ZM492.646 271.883C492.646 273.245 492.11 274.552 491.152 275.521C490.195 276.49 488.894 277.043 487.532 277.059H468.12C466.752 277.043 465.445 276.493 464.478 275.525C463.51 274.558 462.96 273.251 462.944 271.883V257.648C462.96 256.286 463.513 254.985 464.482 254.027C465.451 253.07 466.758 252.533 468.12 252.533H487.716C489.073 252.533 490.374 253.072 491.333 254.031C492.292 254.99 492.831 256.291 492.831 257.648L492.646 271.883ZM492.646 31.1815C492.646 32.5437 492.11 33.8511 491.152 34.8201C490.195 35.7891 488.894 36.3416 487.532 36.3578H468.12C466.752 36.3419 465.445 35.7913 464.478 34.824C463.51 33.8567 462.96 32.5494 462.944 31.1815V16.9465C462.96 15.5843 463.513 14.2835 464.482 13.326C465.451 12.3685 466.758 11.8316 468.12 11.8317H487.716C489.073 11.8317 490.374 12.3706 491.333 13.3298C492.292 14.289 492.831 15.5899 492.831 16.9465L492.646 31.1815ZM538.186 271.883C538.186 273.245 537.649 274.552 536.692 275.521C535.734 276.49 534.434 277.043 533.071 277.059H513.475C512.113 277.043 510.812 276.49 509.855 275.521C508.897 274.552 508.36 273.245 508.36 271.883V257.648C508.36 256.291 508.899 254.99 509.858 254.031C510.818 253.072 512.119 252.533 513.475 252.533H533.071C534.428 252.533 535.729 253.072 536.688 254.031C537.647 254.99 538.186 256.291 538.186 257.648V271.883ZM538.186 31.1815C538.186 32.5437 537.649 33.8511 536.692 34.8201C535.734 35.7891 534.434 36.3416 533.071 36.3578H513.475C512.113 36.3416 510.812 35.7891 509.855 34.8201C508.897 33.8511 508.36 32.5437 508.36 31.1815V16.9465C508.36 15.5899 508.899 14.289 509.858 13.3298C510.818 12.3706 512.119 11.8317 513.475 11.8317H533.071C534.428 11.8317 535.729 12.3706 536.688 13.3298C537.647 14.289 538.186 15.5899 538.186 16.9465V31.1815ZM583.972 272.068C583.956 273.435 583.406 274.743 582.438 275.71C581.471 276.677 580.164 277.228 578.796 277.244H559.323C557.955 277.228 556.648 276.677 555.68 275.71C554.713 274.743 554.163 273.435 554.147 272.068V257.648C554.163 256.286 554.715 254.985 555.684 254.027C556.653 253.07 557.961 252.533 559.323 252.533H578.858C580.22 252.533 581.527 253.07 582.496 254.027C583.465 254.985 584.018 256.286 584.034 257.648L583.972 272.068ZM583.972 31.1815C583.956 32.5494 583.406 33.8567 582.438 34.824C581.471 35.7913 580.164 36.3419 578.796 36.3578H559.323C557.955 36.3419 556.648 35.7913 555.68 34.824C554.713 33.8567 554.163 32.5494 554.147 31.1815V16.9465C554.163 15.5843 554.715 14.2835 555.684 13.326C556.653 12.3685 557.961 11.8316 559.323 11.8317H578.858C580.22 11.8316 581.527 12.3685 582.496 13.326C583.465 14.2835 584.018 15.5843 584.034 16.9465L583.972 31.1815ZM629.512 271.883C629.512 273.245 628.975 274.552 628.018 275.521C627.06 276.49 625.759 277.043 624.397 277.059H604.801C603.439 277.043 602.138 276.49 601.181 275.521C600.223 274.552 599.686 273.245 599.686 271.883V257.648C599.686 256.291 600.225 254.99 601.185 254.031C602.144 253.072 603.445 252.533 604.801 252.533H624.397C625.754 252.533 627.055 253.072 628.014 254.031C628.973 254.99 629.512 256.291 629.512 257.648V271.883ZM629.512 31.1815C629.512 32.5437 628.975 33.8511 628.018 34.8201C627.06 35.7891 625.759 36.3416 624.397 36.3578H604.801C603.439 36.3416 602.138 35.7891 601.181 34.8201C600.223 33.8511 599.686 32.5437 599.686 31.1815V16.9465C599.686 15.5899 600.225 14.289 601.185 13.3298C602.144 12.3706 603.445 11.8317 604.801 11.8317H624.397C625.754 11.8317 627.055 12.3706 628.014 13.3298C628.973 14.289 629.512 15.5899 629.512 16.9465V31.1815ZM675.052 271.883C675.052 273.245 674.515 274.552 673.558 275.521C672.6 276.49 671.299 277.043 669.937 277.059H650.341C648.979 277.043 647.678 276.49 646.72 275.521C645.763 274.552 645.226 273.245 645.226 271.883V257.648C645.226 256.976 645.358 256.311 645.615 255.69C645.872 255.07 646.249 254.506 646.724 254.031C647.199 253.556 647.763 253.179 648.384 252.922C649.004 252.665 649.669 252.533 650.341 252.533H670.245C671.602 252.533 672.903 253.072 673.862 254.031C674.821 254.99 675.36 256.291 675.36 257.648L675.052 271.883ZM675.052 31.1815C675.052 32.5437 674.515 33.8511 673.558 34.8201C672.6 35.7891 671.299 36.3416 669.937 36.3578H650.341C648.979 36.3416 647.678 35.7891 646.72 34.8201C645.763 33.8511 645.226 32.5437 645.226 31.1815V16.9465C645.226 16.2748 645.358 15.6097 645.615 14.9891C645.872 14.3686 646.249 13.8047 646.724 13.3298C647.199 12.8548 647.763 12.4781 648.384 12.221C649.004 11.964 649.669 11.8317 650.341 11.8317H670.245C671.602 11.8317 672.903 12.3706 673.862 13.3298C674.821 14.289 675.36 15.5899 675.36 16.9465L675.052 31.1815ZM720.653 271.883C720.637 273.251 720.087 274.558 719.119 275.525C718.152 276.493 716.845 277.043 715.477 277.059H695.942C694.574 277.043 693.267 276.493 692.3 275.525C691.332 274.558 690.782 273.251 690.766 271.883V257.648C690.782 256.286 691.335 254.985 692.304 254.027C693.273 253.07 694.58 252.533 695.942 252.533H715.477C716.839 252.533 718.146 253.07 719.115 254.027C720.084 254.985 720.637 256.286 720.653 257.648V271.883ZM720.653 31.1815C720.637 32.5494 720.087 33.8567 719.119 34.824C718.152 35.7913 716.845 36.3419 715.477 36.3578H695.942C694.574 36.3419 693.267 35.7913 692.3 34.824C691.332 33.8567 690.782 32.5494 690.766 31.1815V16.9465C690.782 15.5843 691.335 14.2835 692.304 13.326C693.273 12.3685 694.58 11.8316 695.942 11.8317H715.477C716.839 11.8316 718.146 12.3685 719.115 13.326C720.084 14.2835 720.637 15.5843 720.653 16.9465V31.1815ZM766.193 271.883C766.193 273.245 765.656 274.552 764.699 275.521C763.741 276.49 762.44 277.043 761.078 277.059H741.482C740.12 277.043 738.819 276.49 737.862 275.521C736.904 274.552 736.367 273.245 736.367 271.883V257.648C736.367 256.291 736.906 254.99 737.865 254.031C738.824 253.072 740.125 252.533 741.482 252.533H761.078C762.435 252.533 763.736 253.072 764.695 254.031C765.654 254.99 766.193 256.291 766.193 257.648V271.883ZM766.193 31.1815C766.193 32.5437 765.656 33.8511 764.699 34.8201C763.741 35.7891 762.44 36.3416 761.078 36.3578H741.482C740.12 36.3416 738.819 35.7891 737.862 34.8201C736.904 33.8511 736.367 32.5437 736.367 31.1815V16.9465C736.367 15.5899 736.906 14.289 737.865 13.3298C738.824 12.3706 740.125 11.8317 741.482 11.8317H761.078C762.435 11.8317 763.736 12.3706 764.695 13.3298C765.654 14.289 766.193 15.5899 766.193 16.9465V31.1815ZM811.979 272.068C811.979 273.43 811.443 274.737 810.485 275.706C809.527 276.675 808.227 277.228 806.865 277.244H787.33C785.968 277.228 784.667 276.675 783.709 275.706C782.752 274.737 782.215 273.43 782.215 272.068V257.648C782.215 256.291 782.754 254.99 783.713 254.031C784.672 253.072 785.973 252.533 787.33 252.533H806.926C807.598 252.533 808.263 252.665 808.883 252.922C809.504 253.179 810.068 253.556 810.543 254.031C811.018 254.506 811.395 255.07 811.651 255.69C811.909 256.311 812.041 256.976 812.041 257.648L811.979 272.068ZM811.979 31.1815C811.979 32.5437 811.443 33.8511 810.485 34.8201C809.527 35.7891 808.227 36.3416 806.865 36.3578H787.33C785.968 36.3416 784.667 35.7891 783.709 34.8201C782.752 33.8511 782.215 32.5437 782.215 31.1815V16.9465C782.215 15.5899 782.754 14.289 783.713 13.3298C784.672 12.3706 785.973 11.8317 787.33 11.8317H806.926C807.598 11.8317 808.263 11.964 808.883 12.221C809.504 12.4781 810.068 12.8548 810.543 13.3298C811.018 13.8047 811.395 14.3686 811.651 14.9891C811.909 15.6097 812.041 16.2748 812.041 16.9465L811.979 31.1815ZM857.58 271.883C857.58 272.562 857.447 273.236 857.186 273.864C856.926 274.492 856.545 275.062 856.064 275.543C855.584 276.024 855.013 276.405 854.385 276.665C853.757 276.925 853.084 277.059 852.404 277.059H832.87C831.502 277.043 830.194 276.493 829.227 275.525C828.26 274.558 827.709 273.251 827.693 271.883V257.648C827.709 256.286 828.262 254.985 829.231 254.027C830.2 253.07 831.507 252.533 832.87 252.533H852.404C853.081 252.525 853.753 252.651 854.38 252.904C855.008 253.158 855.579 253.533 856.061 254.009C856.542 254.485 856.924 255.051 857.185 255.676C857.446 256.301 857.58 256.971 857.58 257.648V271.883ZM857.58 31.1815C857.58 32.5543 857.035 33.871 856.064 34.8417C855.094 35.8125 853.777 36.3578 852.404 36.3578H832.87C831.502 36.3419 830.194 35.7913 829.227 34.824C828.26 33.8567 827.709 32.5494 827.693 31.1815V16.9465C827.709 15.5843 828.262 14.2835 829.231 13.326C830.2 12.3685 831.507 11.8316 832.87 11.8317H852.404C853.081 11.8236 853.753 11.9498 854.38 12.2032C855.008 12.4566 855.579 12.8321 856.061 13.3078C856.542 13.7836 856.924 14.3502 857.185 14.9748C857.446 15.5994 857.58 16.2696 857.58 16.9465V31.1815ZM903.12 271.883C903.12 273.245 902.583 274.552 901.626 275.521C900.668 276.49 899.368 277.043 898.006 277.059H878.409C877.047 277.043 875.746 276.49 874.789 275.521C873.831 274.552 873.294 273.245 873.295 271.883V257.648C873.295 256.291 873.833 254.99 874.793 254.031C875.752 253.072 877.053 252.533 878.409 252.533H898.006C898.677 252.533 899.342 252.665 899.963 252.922C900.583 253.179 901.147 253.556 901.622 254.031C902.097 254.506 902.474 255.07 902.731 255.69C902.988 256.311 903.12 256.976 903.12 257.648V271.883ZM903.12 31.1815C903.12 32.5437 902.583 33.8511 901.626 34.8201C900.668 35.7891 899.368 36.3416 898.006 36.3578H878.409C877.047 36.3416 875.746 35.7891 874.789 34.8201C873.831 33.8511 873.294 32.5437 873.295 31.1815V16.9465C873.295 15.5899 873.833 14.289 874.793 13.3298C875.752 12.3706 877.053 11.8317 878.409 11.8317H898.006C898.677 11.8317 899.342 11.964 899.963 12.221C900.583 12.4781 901.147 12.8548 901.622 13.3298C902.097 13.8047 902.474 14.3686 902.731 14.9891C902.988 15.6097 903.12 16.2748 903.12 16.9465V31.1815ZM948.722 271.883C948.706 273.251 948.155 274.558 947.188 275.525C946.22 276.493 944.913 277.043 943.545 277.059H924.01C922.643 277.043 921.335 276.493 920.368 275.525C919.401 274.558 918.85 273.251 918.834 271.883V257.648C918.85 256.286 919.403 254.985 920.372 254.027C921.341 253.07 922.648 252.533 924.01 252.533H943.545C944.907 252.533 946.215 253.07 947.184 254.027C948.153 254.985 948.705 256.286 948.722 257.648V271.883ZM948.722 31.1815C948.706 32.5494 948.155 33.8567 947.188 34.824C946.22 35.7913 944.913 36.3419 943.545 36.3578H924.01C922.643 36.3419 921.335 35.7913 920.368 34.824C919.401 33.8567 918.85 32.5494 918.834 31.1815V16.9465C918.85 15.5843 919.403 14.2835 920.372 13.326C921.341 12.3685 922.648 11.8316 924.01 11.8317H943.545C944.907 11.8316 946.215 12.3685 947.184 13.326C948.153 14.2835 948.705 15.5843 948.722 16.9465V31.1815ZM994.261 271.883C994.261 273.245 993.725 274.552 992.767 275.521C991.81 276.49 990.509 277.043 989.147 277.059H969.55C968.188 277.043 966.887 276.49 965.93 275.521C964.972 274.552 964.436 273.245 964.436 271.883V257.648C964.436 256.976 964.568 256.311 964.825 255.69C965.082 255.07 965.459 254.506 965.934 254.031C966.409 253.556 966.972 253.179 967.593 252.922C968.214 252.665 968.879 252.533 969.55 252.533H989.147C990.503 252.533 991.804 253.072 992.763 254.031C993.723 254.99 994.261 256.291 994.261 257.648V271.883ZM994.261 31.1815C994.261 32.5437 993.725 33.8511 992.767 34.8201C991.81 35.7891 990.509 36.3416 989.147 36.3578H969.55C968.188 36.3416 966.887 35.7891 965.93 34.8201C964.972 33.8511 964.436 32.5437 964.436 31.1815V16.9465C964.436 16.2748 964.568 15.6097 964.825 14.9891C965.082 14.3686 965.459 13.8047 965.934 13.3298C966.409 12.8548 966.972 12.4781 967.593 12.221C968.214 11.964 968.879 11.8317 969.55 11.8317H989.147C990.503 11.8317 991.804 12.3706 992.763 13.3298C993.723 14.289 994.261 15.5899 994.261 16.9465V31.1815ZM1039.8 271.883C1039.8 273.245 1039.26 274.552 1038.31 275.521C1037.35 276.49 1036.05 277.043 1034.69 277.059H1015.09C1013.73 277.043 1012.43 276.49 1011.47 275.521C1010.51 274.552 1009.98 273.245 1009.98 271.883V257.648C1009.98 256.291 1010.51 254.99 1011.47 254.031C1012.43 253.072 1013.73 252.533 1015.09 252.533H1034.69C1036.04 252.533 1037.34 253.072 1038.3 254.031C1039.26 254.99 1039.8 256.291 1039.8 257.648V271.883ZM1039.8 31.1815C1039.8 32.5437 1039.26 33.8511 1038.31 34.8201C1037.35 35.7891 1036.05 36.3416 1034.69 36.3578H1015.09C1013.73 36.3416 1012.43 35.7891 1011.47 34.8201C1010.51 33.8511 1009.98 32.5437 1009.98 31.1815V16.9465C1009.98 15.5899 1010.51 14.289 1011.47 13.3298C1012.43 12.3706 1013.73 11.8317 1015.09 11.8317H1034.69C1036.04 11.8317 1037.34 12.3706 1038.3 13.3298C1039.26 14.289 1039.8 15.5899 1039.8 16.9465V31.1815ZM1085.4 271.883C1085.39 273.251 1084.84 274.558 1083.87 275.525C1082.9 276.493 1081.59 277.043 1080.23 277.059H1060.69C1059.32 277.043 1058.02 276.493 1057.05 275.525C1056.08 274.558 1055.53 273.251 1055.52 271.883V257.648C1055.53 256.286 1056.08 254.985 1057.05 254.027C1058.02 253.07 1059.33 252.533 1060.69 252.533H1080.23C1081.59 252.533 1082.9 253.07 1083.86 254.027C1084.83 254.985 1085.39 256.286 1085.4 257.648V271.883ZM1085.4 31.1815C1085.39 32.5494 1084.84 33.8567 1083.87 34.824C1082.9 35.7913 1081.59 36.3419 1080.23 36.3578H1060.69C1059.32 36.3419 1058.02 35.7913 1057.05 34.824C1056.08 33.8567 1055.53 32.5494 1055.52 31.1815V16.9465C1055.53 15.5843 1056.08 14.2835 1057.05 13.326C1058.02 12.3685 1059.33 11.8316 1060.69 11.8317H1080.23C1081.59 11.8316 1082.9 12.3685 1083.86 13.326C1084.83 14.2835 1085.39 15.5843 1085.4 16.9465V31.1815ZM1130.94 271.883C1130.94 273.245 1130.41 274.552 1129.45 275.521C1128.49 276.49 1127.19 277.043 1125.83 277.059H1106.23C1104.87 277.043 1103.57 276.49 1102.61 275.521C1101.65 274.552 1101.12 273.245 1101.12 271.883V257.648C1101.12 256.291 1101.66 254.99 1102.61 254.031C1103.57 253.072 1104.87 252.533 1106.23 252.533H1125.83C1127.18 252.533 1128.48 253.072 1129.44 254.031C1130.4 254.99 1130.94 256.291 1130.94 257.648V271.883ZM1130.94 31.1815C1130.94 32.5437 1130.41 33.8511 1129.45 34.8201C1128.49 35.7891 1127.19 36.3416 1125.83 36.3578H1106.23C1104.87 36.3416 1103.57 35.7891 1102.61 34.8201C1101.65 33.8511 1101.12 32.5437 1101.12 31.1815V16.9465C1101.12 15.5899 1101.66 14.289 1102.61 13.3298C1103.57 12.3706 1104.87 11.8317 1106.23 11.8317H1125.83C1127.18 11.8317 1128.48 12.3706 1129.44 13.3298C1130.4 14.289 1130.94 15.5899 1130.94 16.9465V31.1815ZM1176.48 271.883C1176.48 273.245 1175.95 274.552 1174.99 275.521C1174.03 276.49 1172.73 277.043 1171.37 277.059H1151.52C1150.16 277.043 1148.86 276.49 1147.9 275.521C1146.95 274.552 1146.41 273.245 1146.41 271.883V257.648C1146.41 256.291 1146.95 254.99 1147.91 254.031C1148.87 253.072 1150.17 252.533 1151.52 252.533H1171.12C1172.48 252.533 1173.78 253.072 1174.74 254.031C1175.7 254.99 1176.24 256.291 1176.24 257.648L1176.48 271.883ZM1176.48 31.1815C1176.48 32.5437 1175.95 33.8511 1174.99 34.8201C1174.03 35.7891 1172.73 36.3416 1171.37 36.3578H1151.52C1150.16 36.3416 1148.86 35.7891 1147.9 34.8201C1146.95 33.8511 1146.41 32.5437 1146.41 31.1815V16.9465C1146.41 15.5899 1146.95 14.289 1147.91 13.3298C1148.87 12.3706 1150.17 11.8317 1151.52 11.8317H1171.12C1172.48 11.8317 1173.78 12.3706 1174.74 13.3298C1175.7 14.289 1176.24 15.5899 1176.24 16.9465L1176.48 31.1815ZM1222.08 271.883C1222.08 272.562 1221.95 273.236 1221.69 273.864C1221.43 274.492 1221.05 275.062 1220.57 275.543C1220.09 276.024 1219.52 276.405 1218.89 276.665C1218.26 276.925 1217.59 277.059 1216.91 277.059H1197.13C1195.76 277.043 1194.45 276.493 1193.48 275.525C1192.52 274.558 1191.97 273.251 1191.95 271.883V257.648C1191.97 256.286 1192.52 254.985 1193.49 254.027C1194.46 253.07 1195.76 252.533 1197.13 252.533H1216.66C1217.34 252.525 1218.01 252.651 1218.64 252.904C1219.26 253.158 1219.84 253.533 1220.32 254.009C1220.8 254.485 1221.18 255.051 1221.44 255.676C1221.7 256.301 1221.84 256.971 1221.84 257.648L1222.08 271.883ZM1222.08 31.1815C1222.08 32.5543 1221.54 33.871 1220.57 34.8417C1219.6 35.8125 1218.28 36.3578 1216.91 36.3578H1197.13C1195.76 36.3419 1194.45 35.7913 1193.48 34.824C1192.52 33.8567 1191.97 32.5494 1191.95 31.1815V16.9465C1191.97 15.5843 1192.52 14.2835 1193.49 13.326C1194.46 12.3685 1195.76 11.8316 1197.13 11.8317H1216.66C1217.34 11.8236 1218.01 11.9498 1218.64 12.2032C1219.26 12.4566 1219.84 12.8321 1220.32 13.3078C1220.8 13.7836 1221.18 14.3502 1221.44 14.9748C1221.7 15.5994 1221.84 16.2696 1221.84 16.9465L1222.08 31.1815ZM1267.62 271.883C1267.62 273.245 1267.09 274.552 1266.13 275.521C1265.17 276.49 1263.87 277.043 1262.51 277.059H1242.91C1241.55 277.043 1240.25 276.49 1239.29 275.521C1238.33 274.552 1237.8 273.245 1237.8 271.883V257.648C1237.8 256.291 1238.34 254.99 1239.3 254.031C1240.25 253.072 1241.56 252.533 1242.91 252.533H1262.51C1263.86 252.533 1265.17 253.072 1266.12 254.031C1267.08 254.99 1267.62 256.291 1267.62 257.648V271.883ZM1267.62 31.1815C1267.62 32.5437 1267.09 33.8511 1266.13 34.8201C1265.17 35.7891 1263.87 36.3416 1262.51 36.3578H1242.91C1241.55 36.3416 1240.25 35.7891 1239.29 34.8201C1238.33 33.8511 1237.8 32.5437 1237.8 31.1815V16.9465C1237.8 15.5899 1238.34 14.289 1239.3 13.3298C1240.25 12.3706 1241.56 11.8317 1242.91 11.8317H1262.51C1263.86 11.8317 1265.17 12.3706 1266.12 13.3298C1267.08 14.289 1267.62 15.5899 1267.62 16.9465V31.1815ZM1313.22 271.883C1313.21 273.251 1312.66 274.558 1311.69 275.525C1310.72 276.493 1309.42 277.043 1308.05 277.059H1288.51C1287.15 277.043 1285.84 276.493 1284.87 275.525C1283.9 274.558 1283.35 273.251 1283.34 271.883V257.648C1283.35 256.286 1283.91 254.985 1284.87 254.027C1285.84 253.07 1287.15 252.533 1288.51 252.533H1308.05C1309.41 252.533 1310.72 253.07 1311.69 254.027C1312.66 254.985 1313.21 256.286 1313.22 257.648V271.883ZM1313.22 31.1815C1313.21 32.5494 1312.66 33.8567 1311.69 34.824C1310.72 35.7913 1309.42 36.3419 1308.05 36.3578H1288.51C1287.15 36.3419 1285.84 35.7913 1284.87 34.824C1283.9 33.8567 1283.35 32.5494 1283.34 31.1815V16.9465C1283.35 15.5843 1283.91 14.2835 1284.87 13.326C1285.84 12.3685 1287.15 11.8316 1288.51 11.8317H1308.05C1309.41 11.8316 1310.72 12.3685 1311.69 13.326C1312.66 14.2835 1313.21 15.5843 1313.22 16.9465V31.1815ZM1358.76 271.883C1358.76 273.245 1358.23 274.552 1357.27 275.521C1356.31 276.49 1355.01 277.043 1353.65 277.059H1334.05C1332.69 277.043 1331.39 276.49 1330.43 275.521C1329.48 274.552 1328.94 273.245 1328.94 271.883V257.648C1328.94 256.291 1329.48 254.99 1330.44 254.031C1331.4 253.072 1332.7 252.533 1334.05 252.533H1353.65C1355.01 252.533 1356.31 253.072 1357.27 254.031C1358.23 254.99 1358.76 256.291 1358.76 257.648V271.883ZM1358.76 31.1815C1358.76 32.5437 1358.23 33.8511 1357.27 34.8201C1356.31 35.7891 1355.01 36.3416 1353.65 36.3578H1334.05C1332.69 36.3416 1331.39 35.7891 1330.43 34.8201C1329.48 33.8511 1328.94 32.5437 1328.94 31.1815V16.9465C1328.94 15.5899 1329.48 14.289 1330.44 13.3298C1331.4 12.3706 1332.7 11.8317 1334.05 11.8317H1353.65C1355.01 11.8317 1356.31 12.3706 1357.27 13.3298C1358.23 14.289 1358.76 15.5899 1358.76 16.9465V31.1815ZM1404.3 271.883C1404.3 273.245 1403.77 274.552 1402.81 275.521C1401.85 276.49 1400.55 277.043 1399.19 277.059H1379.59C1378.23 277.043 1376.93 276.49 1375.97 275.521C1375.01 274.552 1374.48 273.245 1374.48 271.883V257.648C1374.48 256.291 1375.02 254.99 1375.98 254.031C1376.94 253.072 1378.24 252.533 1379.59 252.533H1399.19C1400.55 252.533 1401.85 253.072 1402.81 254.031C1403.76 254.99 1404.3 256.291 1404.3 257.648V271.883ZM1404.3 31.1815C1404.3 32.5437 1403.77 33.8511 1402.81 34.8201C1401.85 35.7891 1400.55 36.3416 1399.19 36.3578H1379.59C1378.23 36.3416 1376.93 35.7891 1375.97 34.8201C1375.01 33.8511 1374.48 32.5437 1374.48 31.1815V16.9465C1374.48 15.5899 1375.02 14.289 1375.98 13.3298C1376.94 12.3706 1378.24 11.8317 1379.59 11.8317H1399.19C1400.55 11.8317 1401.85 12.3706 1402.81 13.3298C1403.76 14.289 1404.3 15.5899 1404.3 16.9465V31.1815ZM1449.91 271.883C1449.89 273.251 1449.34 274.558 1448.37 275.525C1447.4 276.493 1446.1 277.043 1444.73 277.059H1425.19C1423.83 277.043 1422.52 276.493 1421.55 275.525C1420.58 274.558 1420.03 273.251 1420.02 271.883V257.648C1420.03 256.286 1420.59 254.985 1421.56 254.027C1422.52 253.07 1423.83 252.533 1425.19 252.533H1444.73C1446.09 252.533 1447.4 253.07 1448.37 254.027C1449.34 254.985 1449.89 256.286 1449.91 257.648V271.883ZM1449.91 31.1815C1449.89 32.5494 1449.34 33.8567 1448.37 34.824C1447.4 35.7913 1446.1 36.3419 1444.73 36.3578H1425.19C1423.83 36.3419 1422.52 35.7913 1421.55 34.824C1420.58 33.8567 1420.03 32.5494 1420.02 31.1815V16.9465C1420.03 15.5843 1420.59 14.2835 1421.56 13.326C1422.52 12.3685 1423.83 11.8316 1425.19 11.8317H1444.73C1446.09 11.8316 1447.4 12.3685 1448.37 13.326C1449.34 14.2835 1449.89 15.5843 1449.91 16.9465V31.1815ZM1495.44 271.883C1495.45 273.245 1494.91 274.552 1493.95 275.521C1492.99 276.49 1491.69 277.043 1490.33 277.059H1470.73C1469.37 277.043 1468.07 276.49 1467.11 275.521C1466.16 274.552 1465.62 273.245 1465.62 271.883V257.648C1465.62 256.291 1466.16 254.99 1467.12 254.031C1468.08 253.072 1469.38 252.533 1470.73 252.533H1489.84C1491.19 252.533 1492.49 253.072 1493.45 254.031C1494.41 254.99 1494.95 256.291 1494.95 257.648L1495.44 271.883ZM1495.44 31.1815C1495.45 32.5437 1494.91 33.8511 1493.95 34.8201C1492.99 35.7891 1491.69 36.3416 1490.33 36.3578H1470.73C1470.02 36.4087 1469.31 36.3125 1468.64 36.0752C1467.97 35.838 1467.35 35.4648 1466.83 34.9789C1466.31 34.4931 1465.9 33.9051 1465.61 33.2517C1465.33 32.5983 1465.19 31.8935 1465.19 31.1815V16.9465C1465.19 15.5899 1465.73 14.289 1466.69 13.3298C1467.65 12.3706 1468.95 11.8317 1470.3 11.8317H1489.84C1491.19 11.8317 1492.49 12.3706 1493.45 13.3298C1494.41 14.289 1494.95 15.5899 1494.95 16.9465L1495.44 31.1815ZM1540.98 271.883C1540.98 273.245 1540.45 274.552 1539.49 275.521C1538.53 276.49 1537.23 277.043 1535.87 277.059H1516.27C1514.91 277.043 1513.61 276.49 1512.65 275.521C1511.7 274.552 1511.16 273.245 1511.16 271.883V257.648C1511.16 256.291 1511.7 254.99 1512.66 254.031C1513.62 253.072 1514.92 252.533 1516.27 252.533H1535.87C1537.23 252.533 1538.53 253.072 1539.49 254.031C1540.45 254.99 1540.98 256.291 1540.98 257.648V271.883ZM1540.98 31.1815C1540.98 32.5437 1540.45 33.8511 1539.49 34.8201C1538.53 35.7891 1537.23 36.3416 1535.87 36.3578H1516.27C1514.91 36.3416 1513.61 35.7891 1512.65 34.8201C1511.7 33.8511 1511.16 32.5437 1511.16 31.1815V16.9465C1511.16 15.5899 1511.7 14.289 1512.66 13.3298C1513.62 12.3706 1514.92 11.8317 1516.27 11.8317H1535.87C1537.23 11.8317 1538.53 12.3706 1539.49 13.3298C1540.45 14.289 1540.98 15.5899 1540.98 16.9465V31.1815ZM1586.59 271.883C1586.59 273.245 1586.05 274.552 1585.09 275.521C1584.13 276.49 1582.83 277.043 1581.47 277.059H1561.88C1560.51 277.043 1559.2 276.493 1558.23 275.525C1557.27 274.558 1556.71 273.251 1556.7 271.883V257.648C1556.71 256.286 1557.27 254.985 1558.24 254.027C1559.21 253.07 1560.51 252.533 1561.88 252.533H1581.47C1582.83 252.533 1584.13 253.072 1585.09 254.031C1586.05 254.99 1586.59 256.291 1586.59 257.648V271.883ZM1586.59 31.1815C1586.59 32.5437 1586.05 33.8511 1585.09 34.8201C1584.13 35.7891 1582.83 36.3416 1581.47 36.3578H1561.88C1560.51 36.3419 1559.2 35.7913 1558.23 34.824C1557.27 33.8567 1556.71 32.5494 1556.7 31.1815V16.9465C1556.71 15.5843 1557.27 14.2835 1558.24 13.326C1559.21 12.3685 1560.51 11.8316 1561.88 11.8317H1581.47C1582.83 11.8317 1584.13 12.3706 1585.09 13.3298C1586.05 14.289 1586.59 15.5899 1586.59 16.9465V31.1815ZM1632.13 271.883C1632.13 273.245 1631.59 274.552 1630.63 275.521C1629.67 276.49 1628.37 277.043 1627.01 277.059H1606.92C1605.56 277.043 1604.26 276.49 1603.3 275.521C1602.34 274.552 1601.81 273.245 1601.81 271.883V257.648C1601.81 256.291 1602.35 254.99 1603.31 254.031C1604.26 253.072 1605.57 252.533 1606.92 252.533H1626.52C1627.87 252.533 1629.18 253.072 1630.13 254.031C1631.09 254.99 1631.63 256.291 1631.63 257.648L1632.13 271.883ZM1632.13 31.1815C1632.13 32.5437 1631.59 33.8511 1630.63 34.8201C1629.67 35.7891 1628.37 36.3416 1627.01 36.3578H1606.92C1605.56 36.3416 1604.26 35.7891 1603.3 34.8201C1602.34 33.8511 1601.81 32.5437 1601.81 31.1815V16.9465C1601.81 15.5899 1602.35 14.289 1603.31 13.3298C1604.26 12.3706 1605.57 11.8317 1606.92 11.8317H1626.52C1627.87 11.8317 1629.18 12.3706 1630.13 13.3298C1631.09 14.289 1631.63 15.5899 1631.63 16.9465L1632.13 31.1815ZM1677.73 271.883C1677.71 273.251 1677.16 274.558 1676.19 275.525C1675.23 276.493 1673.92 277.043 1672.55 277.059H1652.95C1651.59 277.043 1650.29 276.49 1649.33 275.521C1648.38 274.552 1647.84 273.245 1647.84 271.883V257.648C1647.84 256.291 1648.38 254.99 1649.34 254.031C1650.3 253.072 1651.6 252.533 1652.95 252.533H1672.55C1673.91 252.533 1675.22 253.07 1676.19 254.027C1677.16 254.985 1677.71 256.286 1677.73 257.648V271.883ZM1677.73 31.1815C1677.71 32.5494 1677.16 33.8567 1676.19 34.824C1675.23 35.7913 1673.92 36.3419 1672.55 36.3578H1652.95C1651.59 36.3416 1650.29 35.7891 1649.33 34.8201C1648.38 33.8511 1647.84 32.5437 1647.84 31.1815V16.9465C1647.84 15.5899 1648.38 14.289 1649.34 13.3298C1650.3 12.3706 1651.6 11.8317 1652.95 11.8317H1672.55C1673.91 11.8316 1675.22 12.3685 1676.19 13.326C1677.16 14.2835 1677.71 15.5843 1677.73 16.9465V31.1815ZM1723.27 271.883C1723.27 273.245 1722.73 274.552 1721.77 275.521C1720.81 276.49 1719.51 277.043 1718.15 277.059H1698.56C1697.19 277.043 1695.89 276.49 1694.94 275.521C1693.98 274.552 1693.44 273.245 1693.44 271.883V257.648C1693.44 256.291 1693.98 254.99 1694.94 254.031C1695.9 253.072 1697.2 252.533 1698.56 252.533H1717.84C1719.2 252.533 1720.5 253.072 1721.46 254.031C1722.42 254.99 1722.96 256.291 1722.96 257.648L1723.27 271.883ZM1723.27 31.1815C1723.27 32.5437 1722.73 33.8511 1721.77 34.8201C1720.81 35.7891 1719.51 36.3416 1718.15 36.3578H1698.56C1697.86 36.3827 1697.17 36.2672 1696.52 36.0182C1695.87 35.7692 1695.28 35.3918 1694.78 34.9087C1694.27 34.4255 1693.88 33.8464 1693.61 33.206C1693.33 32.5657 1693.19 31.8771 1693.19 31.1815V16.9465C1693.19 15.5899 1693.73 14.289 1694.69 13.3298C1695.65 12.3706 1696.95 11.8317 1698.31 11.8317H1717.84C1719.2 11.8317 1720.5 12.3706 1721.46 13.3298C1722.42 14.289 1722.96 15.5899 1722.96 16.9465L1723.27 31.1815Z" fill="#FDCB04"/>
<path d="M255.643 47.8816H8.77949C0.951743 47.8816 -5.39392 54.2272 -5.39392 62.055V229.486C-5.39392 237.314 0.951743 243.659 8.77949 243.659H255.643C263.471 243.659 269.816 237.314 269.816 229.486V62.055C269.816 54.2272 263.471 47.8816 255.643 47.8816Z" fill="#545454"/>
<path d="M546.32 47.8816H299.457C291.629 47.8816 285.283 54.2272 285.283 62.055V229.486C285.283 237.314 291.629 243.659 299.457 243.659H546.32C554.148 243.659 560.494 237.314 560.494 229.486V62.055C560.494 54.2272 554.148 47.8816 546.32 47.8816Z" fill="#545454"/>
<path d="M836.936 47.8816H590.072C582.245 47.8816 575.899 54.2272 575.899 62.055V229.486C575.899 237.314 582.245 243.659 590.072 243.659H836.936C844.764 243.659 851.109 237.314 851.109 229.486V62.055C851.109 54.2272 844.764 47.8816 836.936 47.8816Z" fill="#545454"/>
<path d="M1127.62 47.8816H880.751C872.924 47.8816 866.578 54.2272 866.578 62.055V229.486C866.578 237.314 872.924 243.659 880.751 243.659H1127.62C1135.44 243.659 1141.79 237.314 1141.79 229.486V62.055C1141.79 54.2272 1135.44 47.8816 1127.62 47.8816Z" fill="#545454"/>
<path d="M1418.17 47.8816H1171.37C1168.84 47.9035 1166.36 48.6007 1164.2 49.9009C1162.03 51.2011 1160.25 53.057 1159.04 55.2764C1157.85 57.3244 1157.18 59.6284 1157.07 61.9934V229.424C1157.07 231.785 1157.64 234.109 1158.73 236.203C1159.94 238.422 1161.72 240.278 1163.89 241.578C1166.06 242.879 1168.53 243.576 1171.06 243.598H1417.86C1421.62 243.598 1425.22 242.104 1427.88 239.446C1430.54 236.788 1432.03 233.183 1432.03 229.424V61.9934C1432.02 58.2978 1430.56 54.7543 1427.97 52.1182C1425.38 49.4821 1421.86 47.9619 1418.17 47.8816Z" fill="#545454"/>
</svg>
